<svg id="arrow-left" xmlns="http://www.w3.org/2000/svg" width="45" height="26.254" viewBox="0 0 45 26.254">
  <path id="Path_12" data-name="Path 12" d="M5.059,10.674a1.855,1.855,0,0,0,0,2.655L15.138,23.25,5.057,33.173a1.857,1.857,0,0,0,0,2.655,1.928,1.928,0,0,0,2.7,0L19.178,24.579a1.855,1.855,0,0,0,0-2.655L7.753,10.674a1.925,1.925,0,0,0-2.7,0Z" transform="translate(25.262 -10.123)" fill="#dad8e6"/>
  <path id="Path_13" data-name="Path 13" d="M48.718,18.779a1.889,1.889,0,0,0-1.874-1.9H7.5a1.9,1.9,0,0,0,0,3.808H46.845A1.889,1.889,0,0,0,48.718,18.779Z" transform="translate(-5.625 -5.652)" fill="#dad8e6"/>
</svg>
