<svg xmlns="http://www.w3.org/2000/svg" width="18.888" height="20.34" viewBox="0 0 18.888 20.34">
  <path id="calendar" d="M1.453,18.888H4.722V15.619H1.453Zm4,0H9.08V15.619H5.449v3.269Zm-4-4H4.722V11.26H1.453Zm4,0H9.08V11.26H5.449v3.633Zm-4-4.359H4.722V7.264H1.453Zm8.354,8.354H13.44V15.619H9.807ZM5.449,10.534H9.081V7.264H5.449Zm8.718,8.354h3.269V15.619H14.166Zm-4.359-4H13.44V11.26H9.807v3.633Zm-4-9.808V1.816a.369.369,0,0,0-.363-.363H4.722a.369.369,0,0,0-.363.363V5.085a.369.369,0,0,0,.363.363h.727a.369.369,0,0,0,.363-.363Zm8.354,9.807h3.269V11.26H14.166v3.633ZM9.807,10.534H13.44V7.264H9.807Zm4.359,0h3.269V7.264H14.166Zm.363-5.449V1.816a.369.369,0,0,0-.363-.363h-.727a.368.368,0,0,0-.363.363V5.085a.369.369,0,0,0,.363.363h.727a.369.369,0,0,0,.363-.363Zm4.359-.727V18.888a1.472,1.472,0,0,1-1.453,1.453H1.453a1.4,1.4,0,0,1-1.022-.431A1.4,1.4,0,0,1,0,18.888V4.359A1.4,1.4,0,0,1,.431,3.337a1.4,1.4,0,0,1,1.022-.431H2.905V1.816A1.749,1.749,0,0,1,3.439.533,1.749,1.749,0,0,1,4.722,0h.727A1.749,1.749,0,0,1,6.731.533a1.749,1.749,0,0,1,.533,1.283v1.09h4.359V1.816A1.749,1.749,0,0,1,12.156.533,1.749,1.749,0,0,1,13.439,0h.727a1.749,1.749,0,0,1,1.283.533,1.749,1.749,0,0,1,.533,1.283v1.09h1.453a1.4,1.4,0,0,1,1.022.431,1.4,1.4,0,0,1,.431,1.022Z" transform="translate(0)" fill="#756f97"/>
</svg>
