<svg xmlns="http://www.w3.org/2000/svg" width="17.594" height="17.596" viewBox="0 0 17.594 17.596">
  <path id="call" d="M16.354,19.846A7.4,7.4,0,0,1,12.9,18.668a22.471,22.471,0,0,1-5.429-4.061A20.615,20.615,0,0,1,3.392,9.181c-1.447-2.632-1.2-4.011-.925-4.6a3.674,3.674,0,0,1,1.44-1.545,6.925,6.925,0,0,1,1.125-.6l.108-.047A1.05,1.05,0,0,1,6,2.312a2.524,2.524,0,0,1,.819.628A13.607,13.607,0,0,1,8.87,5.982a3.027,3.027,0,0,1,.4,1.246,1.97,1.97,0,0,1-.5,1.171c-.051.07-.1.137-.152.2-.3.393-.364.506-.321.709A7.449,7.449,0,0,0,10.113,12a7.146,7.146,0,0,0,2.66,1.77c.211.045.327-.023.732-.333.058-.044.118-.09.18-.136a1.979,1.979,0,0,1,1.189-.532h0a2.848,2.848,0,0,1,1.251.439,14.993,14.993,0,0,1,3.03,2.034,2.534,2.534,0,0,1,.631.817,1.059,1.059,0,0,1-.079.864c-.015.032-.031.068-.047.108a6.932,6.932,0,0,1-.6,1.123,3.67,3.67,0,0,1-1.547,1.437,2.648,2.648,0,0,1-1.161.255Z" transform="translate(-2.257 -2.25)" fill="#ebab64"/>
</svg>
