<svg xmlns="http://www.w3.org/2000/svg" width="24" height="24.004" viewBox="0 0 24 24.004">
  <path id="call" d="M21.487,26.254a10.1,10.1,0,0,1-4.715-1.607,30.653,30.653,0,0,1-7.405-5.539,28.122,28.122,0,0,1-5.561-7.4C1.832,8.115,2.168,6.233,2.544,5.428A5.011,5.011,0,0,1,4.508,3.321a9.446,9.446,0,0,1,1.535-.815l.148-.065a1.433,1.433,0,0,1,1.176-.107,3.443,3.443,0,0,1,1.118.857A18.562,18.562,0,0,1,11.279,7.34a4.129,4.129,0,0,1,.548,1.7,2.687,2.687,0,0,1-.683,1.6c-.07.1-.14.187-.207.277-.408.536-.5.69-.438.967a10.162,10.162,0,0,0,2.475,3.671A9.748,9.748,0,0,0,16.6,17.966c.288.062.447-.031,1-.454.079-.06.161-.123.246-.186a2.7,2.7,0,0,1,1.622-.725h0a3.885,3.885,0,0,1,1.707.6,20.452,20.452,0,0,1,4.133,2.775,3.457,3.457,0,0,1,.86,1.115,1.444,1.444,0,0,1-.107,1.179c-.02.044-.042.093-.065.147a9.456,9.456,0,0,1-.819,1.532,5.007,5.007,0,0,1-2.11,1.96,3.612,3.612,0,0,1-1.584.347Z" transform="translate(-2.257 -2.25)" fill="#f78f1e"/>
</svg>
