<svg xmlns="http://www.w3.org/2000/svg" width="24" height="21.42" viewBox="0 0 24 21.42">
  <g id="cart" transform="translate(-2.25 -4.5)">
    <path id="Path_28" data-name="Path 28" d="M13.695,28.785A1.785,1.785,0,1,1,11.91,27,1.785,1.785,0,0,1,13.695,28.785Z" transform="translate(-1.628 -4.65)" fill="#fff"/>
    <path id="Path_29" data-name="Path 29" d="M29.445,28.785A1.785,1.785,0,1,1,27.66,27,1.785,1.785,0,0,1,29.445,28.785Z" transform="translate(-4.883 -4.65)" fill="#fff"/>
    <path id="Path_30" data-name="Path 30" d="M25.946,7.667a1.334,1.334,0,0,0-1.035-.489H7.933l-.342-1.94A.892.892,0,0,0,6.712,4.5H3.142a.892.892,0,0,0,0,1.785H5.964L8.51,20.72a.892.892,0,0,0,.88.738H23.67a.892.892,0,1,0,0-1.785H10.139l-.315-1.785H23.3a1.342,1.342,0,0,0,1.314-1.076l1.606-8.032a1.339,1.339,0,0,0-.279-1.111Z" fill="#fff"/>
  </g>
</svg>
