<svg xmlns="http://www.w3.org/2000/svg" width="538.216" height="328.68" viewBox="0 0 538.216 328.68">
  <g id="Group_253" data-name="Group 253" transform="translate(0 -0.006)">
    <path id="Path_234" data-name="Path 234" d="M446.8,383.056c-.223-.222-5.519-5.585-10.009-18.311-4.118-11.676-8.275-32.036-4.683-62.73,6.8-58.147-28.085-95.2-28.439-95.573l1.033-.992c.09.093,9.06,9.523,17.041,26.078a128.156,128.156,0,0,1,11.787,70.653c-6.792,58.048,14.069,79.649,14.28,79.861Z" transform="translate(-243.272 -176.517)" fill="#f2f2f2"/>
    <circle id="Ellipse_34" data-name="Ellipse 34" cx="9.304" cy="9.304" r="9.304" transform="translate(140.378 10.341)" fill="#f2f2f2"/>
    <circle id="Ellipse_35" data-name="Ellipse 35" cx="9.304" cy="9.304" r="9.304" transform="translate(177.033 36.754)" fill="#f2f2f2"/>
    <circle id="Ellipse_36" data-name="Ellipse 36" cx="9.304" cy="9.304" r="9.304" transform="translate(162.998 63.757)" fill="#f2f2f2"/>
    <circle id="Ellipse_37" data-name="Ellipse 37" cx="9.304" cy="9.304" r="9.304" transform="translate(191.221 76.757)" fill="#f2f2f2"/>
    <circle id="Ellipse_38" data-name="Ellipse 38" cx="9.304" cy="9.304" r="9.304" transform="translate(167.759 113.43)" fill="#f2f2f2"/>
    <path id="Path_235" data-name="Path 235" d="M487.954,489.456s-14.471-20.042,8.571-43.35Z" transform="translate(-278.886 -283.918)" fill="#f2f2f2"/>
    <path id="Path_236" data-name="Path 236" d="M437.723,515.365s-9.891-22.656-41.68-14.679Z" transform="translate(-239.87 -307.517)" fill="#f2f2f2"/>
    <path id="Path_237" data-name="Path 237" d="M798.19,461.243c-.039-.469-.87-11.718,6.362-30.574,6.636-17.3,21.654-44.529,55.525-76.016C924.244,295,920.446,218.933,920.4,218.171l2.139-.128c.012.193,1.083,19.64-5.885,46.245a191.782,191.782,0,0,1-55.118,91.936c-64.057,59.547-61.247,104.4-61.211,104.844Z" transform="translate(-419.319 -182.137)" fill="#f2f2f2"/>
    <circle id="Ellipse_39" data-name="Ellipse 39" cx="13.923" cy="13.923" r="13.923" transform="translate(484.923 0.005)" fill="#f2f2f2"/>
    <circle id="Ellipse_40" data-name="Ellipse 40" cx="13.923" cy="13.923" r="13.923" transform="translate(501.06 65.663)" fill="#f2f2f2"/>
    <circle id="Ellipse_41" data-name="Ellipse 41" cx="13.923" cy="13.923" r="13.923" transform="translate(458.871 82.811)" fill="#f2f2f2"/>
    <circle id="Ellipse_42" data-name="Ellipse 42" cx="13.923" cy="13.923" r="13.923" transform="translate(478.414 125.005)" fill="#f2f2f2"/>
    <circle id="Ellipse_43" data-name="Ellipse 43" cx="13.923" cy="13.923" r="13.923" transform="translate(416.103 144.025)" fill="#f2f2f2"/>
    <path id="Path_238" data-name="Path 238" d="M811.384,631.8s2.957-36.875,51.823-41.076Z" transform="translate(-425.229 -348.46)" fill="#f2f2f2"/>
    <path id="Path_239" data-name="Path 239" d="M757.465,603.941s10.712-35.409-33.246-57.162Z" transform="translate(-386.328 -328.847)" fill="#f2f2f2"/>
    <path id="Path_240" data-name="Path 240" d="M214.727,565.895c-4.641,17.157-20.539,27.783-20.539,27.783s-8.373-17.192-3.731-34.349S211,531.546,211,531.546,219.368,548.737,214.727,565.895Z" transform="translate(-147.494 -322.049)" fill="#d98120"/>
    <path id="Path_241" data-name="Path 241" d="M158.033,565.895c4.641,17.157,20.539,27.783,20.539,27.783s8.373-17.192,3.731-34.349-20.539-27.783-20.539-27.783S153.392,548.737,158.033,565.895Z" transform="translate(-133.024 -322.049)" fill="#d98120"/>
    <path id="Path_242" data-name="Path 242" d="M145.827,576.086c12.736,12.4,14.292,31.457,14.292,31.457s-19.093-1.042-31.829-13.44S114,562.646,114,562.646,133.091,563.689,145.827,576.086Z" transform="translate(-113.997 -335.928)" fill="#3f3d56"/>
    <path id="Path_243" data-name="Path 243" d="M211.582,576.086c-12.736,12.4-14.292,31.457-14.292,31.457s19.093-1.042,31.829-13.44,14.292-31.457,14.292-31.457S224.318,563.689,211.582,576.086Z" transform="translate(-151.17 -335.928)" fill="#3f3d56"/>
    <rect id="Rectangle_78" data-name="Rectangle 78" width="533.512" height="1.241" transform="translate(4.704 308.495)" fill="#2f2e41"/>
    <path id="Path_244" data-name="Path 244" d="M513.478,359.763s-5.537-5.537-18.273-4.43c0,0-122.925-12.735-125.694,9.967s-3.322,35.992,3.876,40.975c0,0,23.533,21.318,11.351,40.144l-6.645,11.074,260.8-2.215s2.769-40.421,11.074-48.173,11.074-48.727,0-49.835S510.432,350.073,513.478,359.763Z" transform="translate(-227.178 -241.819)" fill="#3f3d56"/>
    <path id="Path_245" data-name="Path 245" d="M338.746,447.685s-78.074,18.273-47.066,52.6l4.983,4.983-2.215,76.413H654.365l3.876-74.752,4.43-8.859s27.586-33.085-52.1-45.059l-14.346,36.2L353.7,487.553S352.035,446.578,338.746,447.685Z" transform="translate(-190.045 -284.613)" fill="#3f3d56"/>
    <rect id="Rectangle_79" data-name="Rectangle 79" width="22.702" height="17.165" transform="translate(111.048 292.088)" fill="#3f3d56"/>
    <rect id="Rectangle_80" data-name="Rectangle 80" width="22.702" height="17.165" transform="translate(437.741 292.088)" fill="#3f3d56"/>
    <path id="Path_246" data-name="Path 246" d="M509.24,509.484s-54.205-38.483-121.759.277l-19.934,28.793,3.876,23.81s140.09,2.215,141.752-12.735S509.24,509.484,509.24,509.484Z" transform="translate(-227.152 -304.606)" fill="#3f3d56"/>
    <path id="Path_247" data-name="Path 247" d="M752.859,512.794s-95.1-30.454-123.687,0l3.531,43.744s138.983,10.521,141.2,3.322,3.322-19.934,3.322-19.934Z" transform="translate(-343.911 -307.639)" fill="#3f3d56"/>
    <path id="Path_248" data-name="Path 248" d="M636.1,509.876s-95.1-30.454-123.687,0l.079.976c-.094-.453-.147-.7-.147-.7s-57.31-39.037-124.863-.277L367.548,538.67l3.876,23.81s135.652,2.886,144.367-10.756l.153,1.9s138.983,10.521,141.2,3.322,3.322-19.934,3.322-19.934Z" transform="translate(-227.153 -304.722)" opacity="0.1"/>
    <path id="Path_249" data-name="Path 249" d="M386.548,376.331c26.912-.572,52.425-3.988,75.859-11.628.57,26.955,4.446,52.165,13.289,74.752-26.2-4.761-52.789-.05-79.735,13.289C400.8,428.377,396.616,402.761,386.548,376.331Z" transform="translate(-235.632 -247.589)" fill="#d98120"/>
    <path id="Path_250" data-name="Path 250" d="M811.7,384.331c-26.912-.572-52.425-3.988-75.859-11.628-.57,26.955-4.446,52.165-13.289,74.752,26.2-4.761,52.789-.05,79.735,13.289C797.443,436.377,801.628,410.761,811.7,384.331Z" transform="translate(-385.583 -251.16)" fill="#d98120"/>
    <path id="Path_251" data-name="Path 251" d="M569.291,372.333a18.736,18.736,0,0,1,5.129-2.572,130.79,130.79,0,0,1,36.14-7.867c10.746-.762,22.393.143,30.786,6.9a10.586,10.586,0,0,1,3.123,3.638c1.056,2.279.736,4.927.394,7.415a8.38,8.38,0,0,1-.719,2.792c-1.129,2.15-3.91,2.9-6.326,2.646s-4.682-1.28-7.064-1.754a31.587,31.587,0,0,0-4.462-.454l-14.942-.809c-9.291-.5-18.705-1-27.819.878a27.71,27.71,0,0,0-8.038,2.77c-2.082,1.169-3.483,2.846-5.415.687C566.687,382.806,564.808,375.835,569.291,372.333Z" transform="translate(-316.008 -246.235)" fill="#2f2e41"/>
    <path id="Path_252" data-name="Path 252" d="M609.884,389.941s20.1-9.009,27.72,1.386-4.158,6.237-4.158,6.237l-13.167,4.158-14.553-2.772Z" transform="translate(-333.447 -257.236)" fill="#f2f2f2"/>
    <path id="Path_253" data-name="Path 253" d="M615.112,375.944s2.772,13.167.693,16.632,11.781,8.316,11.781,8.316l13.167-5.544s-3.465-21.483,0-25.641Z" transform="translate(-337.636 -249.823)" fill="#ffb9b9"/>
    <path id="Path_254" data-name="Path 254" d="M615.112,375.944s2.772,13.167.693,16.632,11.781,8.316,11.781,8.316l13.167-5.544s-3.465-21.483,0-25.641Z" transform="translate(-337.636 -249.823)" opacity="0.1"/>
    <path id="Path_255" data-name="Path 255" d="M585.689,655.542a75.8,75.8,0,0,1,4.58,12,.976.976,0,0,0,1.213.807l12.327-.014c1.521,0,3.562-.49,3.546-2.012-.011-1.069-1.1-1.735-1.917-2.429-2.256-1.925-2.844-5.1-3.779-7.915a26.853,26.853,0,0,0-9.992-13.42,5.848,5.848,0,0,0-2.136-1.056,5.955,5.955,0,0,0-2.342.127c-2.164.437-10.244,1.93-8.718,5.078.657,1.355,3.093,2.766,4.114,4.032a28.965,28.965,0,0,1,3.1,4.8Z" transform="translate(-321.199 -371.094)" fill="#575a89"/>
    <path id="Path_256" data-name="Path 256" d="M661.786,635.42a28.007,28.007,0,0,1-1.449,2.664c-1.786,2.945-3.893,5.693-5.556,8.709a14.376,14.376,0,0,0-2.025,6.061,6.732,6.732,0,0,0,2.352,5.728c1.789,1.358,4.243,1.421,6.467,1.1s4.435-.954,6.675-.786c-.755-4.274,2.849-8.035,3.751-12.28.253-1.192.291-2.429.63-3.6a17.633,17.633,0,0,1,1.4-3.085,39.891,39.891,0,0,0,3.764-11.1c.085-.469-10.957-.546-11.993-.322C662.564,629.209,663.037,632.739,661.786,635.42Z" transform="translate(-354.431 -365.268)" fill="#575a89"/>
    <path id="Path_257" data-name="Path 257" d="M513.657,508.94c-3.152,4.933-2.426,11.471-.212,16.89s5.738,10.21,8.15,15.545c1.538,3.4,2.616,7.007,4.347,10.313,2.144,4.094,5.274,7.7,6.713,12.095.917,2.8,1.128,5.868,2.613,8.412a25.772,25.772,0,0,0,3.061,3.8,35.091,35.091,0,0,1,7.055,12.6c1.358-4.045,5.424-6.7,9.6-7.571s8.5-.281,12.727.316c-2.357-3.651-4.736-7.348-6.141-11.46-1.359-3.977-1.759-8.208-2.675-12.31-1.877-8.411-5.886-16.169-9.855-23.819l20.4-1.618a79.527,79.527,0,0,1,10.023-.372c5.266.248,10.424,1.539,15.661,2.135s10.778.44,15.445-2.009A74.017,74.017,0,0,0,597.29,575.6a16.924,16.924,0,0,1,25.619,6.046c7.995-10.925,7.044-26.134,13.379-38.1,1.3-2.46,2.9-4.752,4.3-7.154a105.461,105.461,0,0,0,6.8-15.032c1.772-4.532,3.557-9.575,1.858-14.135a14.761,14.761,0,0,0-3.029-4.657c-3.655-4.03-8.743-7.011-14.181-7.135-8.349-.191-15.247,6-22.571,10.012a51.941,51.941,0,0,1-28.5,5.911c-10.061-.712-19.669-4.005-29.254-6.906a139.2,139.2,0,0,0-14.6-3.766c-4.11-.771-8.025.083-12.076,1.134C520.628,502.962,516.2,504.967,513.657,508.94Z" transform="translate(-291.411 -305.93)" fill="#2f2e41"/>
    <path id="Path_258" data-name="Path 258" d="M639.171,340.434a20.807,20.807,0,0,1-20.79,20.79,20.3,20.3,0,0,1-3.694-.333,20.79,20.79,0,1,1,24.484-20.458Z" transform="translate(-329.816 -227.48)" fill="#ffb9b9"/>
    <path id="Path_259" data-name="Path 259" d="M595.082,392.582s3.812,1.732,5.2,3.119,5.544,9.009,12.474,4.158,7.623-7.623,9.7-7.623,4.851,4.158,4.851,4.158l19.058,57.173a79.813,79.813,0,0,1-17.672,14.9c-11.088,6.93-24.255,10.4-30.492,7.623s-18.018-4.851-20.1-10.4-5.544-22.176-5.544-22.176l9.7-42.274Z" transform="translate(-318.646 -259.877)" fill="#f2f2f2"/>
    <path id="Path_260" data-name="Path 260" d="M583.768,446.9c1.511-3.264,1.731-6.958,1.858-10.552a63.973,63.973,0,0,0-.282-10.674c-.614-4.636-2.124-9.1-3.077-13.68a57.833,57.833,0,0,1-1.212-12.209,9.951,9.951,0,0,1,1.169-5.411c.711-1.095,1.824-1.943,2.269-3.17.872-2.407-1.282-4.927-3.642-5.918a14.331,14.331,0,0,0-8.971-.36,42.679,42.679,0,0,0-8.439,3.452,19.317,19.317,0,0,0-5.513,3.564c-2.151,2.226-3.1,5.326-3.861,8.326a17.051,17.051,0,0,0-.689,7.338c.755,3.952,3.977,6.924,5.694,10.563,1.994,4.225,1.86,9.149,1.067,13.753s-2.2,9.106-2.636,13.758.232,9.652,3.147,13.3c1.188,1.488,4.41,5.015,6.584,4.616,1.708-.313,4.184-4.074,5.56-5.265C576.769,454.9,581.485,451.832,583.768,446.9Z" transform="translate(-310.007 -256.373)" fill="#2f2e41"/>
    <path id="Path_261" data-name="Path 261" d="M664.951,382.946c.061,3.865-1.643,7.539-3.647,10.845s-4.357,6.432-5.834,10A22.931,22.931,0,0,0,654.4,417.9a45.5,45.5,0,0,0,1.529,4.721l3.8,10.415a18.074,18.074,0,0,0,2.2,4.623,14.928,14.928,0,0,0,2.992,2.879,27.928,27.928,0,0,0,9.763,5.093,16.512,16.512,0,0,0,10.857-.619,157.1,157.1,0,0,1,6.744-41.637c.759-2.494,1.589-5.121,1-7.661-.656-2.846-2.942-4.983-5.115-6.934-6.646-5.968-13.954-12.237-22.85-13.041C660.174,375.274,664.907,380.151,664.951,382.946Z" transform="translate(-354.882 -252.501)" fill="#2f2e41"/>
    <path id="Path_262" data-name="Path 262" d="M585.578,525.277c.527,1.032.855,2.155,1.376,3.19a17.825,17.825,0,0,0,2.828,3.8c4.634,5.138,10.3,10.256,17.209,10.566a4.721,4.721,0,0,0,2.029-.255,4.021,4.021,0,0,0,2.159-3.086c.49-2.684-.695-5.362-1.881-7.819-2.571-5.325-5.464-10.785-10.277-14.219a19.282,19.282,0,0,0-16.636-2.5c-2.507.772-6.665,2.121-3.345,4.409C581.558,521.1,584.118,522.419,585.578,525.277Z" transform="translate(-320.987 -314.26)" fill="#ffb9b9"/>
    <path id="Path_263" data-name="Path 263" d="M588.008,683.728c-2.066,2.808-1.652,6.821-3.482,9.788-1.586,2.572-4.576,3.92-6.56,6.2a16.622,16.622,0,0,0-1.687,2.426c-1.841,3.083-3.337,7.035-1.524,10.134,1.458,2.494,4.524,3.468,7.335,4.132,3.553.84,7.245,1.511,10.839.87s7.107-2.842,8.389-6.261a24.2,24.2,0,0,1,.9-2.531c1.948-3.835,8.059-3.877,10.052-7.688,1.4-2.668.113-5.892-1.169-8.616l-3.916-8.319c-1.3-2.761-6.567-1.173-9.314-1.835C594.286,681.165,590.584,680.215,588.008,683.728Z" transform="translate(-319.259 -388.848)" fill="#2f2e41"/>
    <path id="Path_264" data-name="Path 264" d="M648.314,671.667a11.134,11.134,0,0,0-3.543,4.854c-1.938,4.471-2.6,9.372-3.25,14.2a17.2,17.2,0,0,0-.112,5.825c.835,3.944,4.409,6.849,8.257,8.055s7.974,1.02,12,.823a8.59,8.59,0,0,0,3.772-.766c2.024-1.116,2.815-3.739,2.468-6.024a17.142,17.142,0,0,0-2.817-6.279,17.2,17.2,0,0,1-2.821-6.278c-.589-3.843,1.073-9.483-1.288-12.96S651.472,669.454,648.314,671.667Z" transform="translate(-349.278 -383.933)" fill="#2f2e41"/>
    <path id="Path_265" data-name="Path 265" d="M633.219,320.882a5.277,5.277,0,0,0-2.289-2.987,12.11,12.11,0,0,0-.483-3.943c-1.259-3.722-4.242-3.509-7.056-5.154-1.221-.714-1.146-1.345-1.781-2.518a9.343,9.343,0,0,0-3.6-3.674c-1.806-1.15-3.711-2.335-5.847-2.481-4.489-.306-7.93,3.916-12.22,5.271-1.891.6-3.923.622-5.824,1.186s-3.8,1.913-4.081,3.875c-.131.906.1,1.836-.033,2.741-.264,1.8-1.843,3.061-2.9,4.542-2.338,3.275-2.071,7.9-.2,11.464a16.11,16.11,0,0,0,1.348,2.11,12.981,12.981,0,0,0,1.424,4.82c1.87,3.563,5.088,6.225,8.449,8.438a19.95,19.95,0,0,1-.5-3.6,2.482,2.482,0,0,1,.153-1.192c.374-.783,1.364-.991,2.118-1.419,1.562-.888,2.175-2.852,2.22-4.648s-.336-3.6-.147-5.382a2.941,2.941,0,0,1,1.007-2.163,3.478,3.478,0,0,1,1.9-.453c3.2-.131,6.545-.189,9.368-1.7a13.883,13.883,0,0,1,2.916-1.475c2.4-.626,4.851,1.056,6.234,3.114s2.072,4.507,3.348,6.633,3.48,4.022,5.946,3.77a.987.987,0,0,0,.737-.328,1.1,1.1,0,0,0,.136-.628l.138-9.428A14.249,14.249,0,0,0,633.219,320.882Z" transform="translate(-324.388 -218.762)" fill="#2f2e41"/>
    <path id="Path_266" data-name="Path 266" d="M542.3,419.651c-1.984,2.926-4.271,5.74-5.361,9.1-.641,1.977-.84,4.066-1.3,6.092-1.545,6.747-6.01,12.739-6.459,19.646A9.34,9.34,0,0,0,529.83,459c1.281,2.786,4.346,4.254,7.27,5.178s6.064,1.589,8.4,3.578a25.741,25.741,0,0,1,3.182,3.689A30.822,30.822,0,0,0,563.4,481.52c-.458-3.153-.672-6.954,1.848-8.9a9.129,9.129,0,0,1,4.906-1.391l8.12-.7a104.345,104.345,0,0,0-17.8-13.866c-2.245-1.387-4.689-2.85-5.714-5.282a12.758,12.758,0,0,1-.647-4.873,120.075,120.075,0,0,0-1.53-18.027c-.668-4.14-1.554-8.242-2.566-12.312-.284-1.142-1.964-6.267-4.031-5.068-.487.282-.943,3.533-1.227,4.207A25.522,25.522,0,0,1,542.3,419.651Z" transform="translate(-299.262 -268.213)" fill="#2f2e41"/>
    <path id="Path_267" data-name="Path 267" d="M569.752,442.736a31.807,31.807,0,0,1-3.039,14.174,11.709,11.709,0,0,0-1.19,3.122c-.364,2.33.962,4.585,2.478,6.392a26.284,26.284,0,0,0,11.238,7.818" transform="translate(-315.478 -282.414)" opacity="0.1"/>
    <path id="Path_268" data-name="Path 268" d="M665.924,369.537l.489.077a1.634,1.634,0,0,1-1.358-1.869l5.057-31.947a1.634,1.634,0,0,1,1.869-1.358l-.489-.077a2.624,2.624,0,0,1,2.181,3l-4.747,29.991a2.624,2.624,0,0,1-3,2.181Z" transform="translate(-359.916 -234.049)" fill="#2f2e41"/>
    <path id="Path_269" data-name="Path 269" d="M.966,0h.751V35.612H.966A.966.966,0,0,1,0,34.647V.966A.966.966,0,0,1,.966,0Z" transform="translate(310.449 100.136) rotate(8.995)" fill="#6c63ff"/>
    <rect id="Rectangle_81" data-name="Rectangle 81" width="0.33" height="2.904" rx="0.165" transform="translate(311.266 104.908) rotate(8.995)" fill="#464353"/>
    <path id="Path_270" data-name="Path 270" d="M685.475,370.221a15.489,15.489,0,0,0,1.489-5.988,12.066,12.066,0,0,0-1.662-5.316,27.165,27.165,0,0,0-4.335-5.951c-2.034-2.116-4.972-4.005-7.745-3.045-2.2.763-3.458,3.055-4.272,5.239a6.585,6.585,0,0,0-.556,3.408c.27,1.5,1.431,2.658,2.273,3.932a20.309,20.309,0,0,1,2.426,6.72l1.359,5.851,2.334,10.05c-.061-.265,4.335-4.429,4.857-5.316C683.324,376.951,684.251,373.3,685.475,370.221Z" transform="translate(-361.399 -240.878)" fill="#ffb9b9"/>
    <path id="Path_271" data-name="Path 271" d="M696.718,398.455l3.316,6.9a16.569,16.569,0,0,1,2.091,9.325l.2,20.687a30.121,30.121,0,0,1-.68,8.237,6.6,6.6,0,0,1-1.144,2.46,7.689,7.689,0,0,1-1.961,1.58c-6.276,3.921-14.413,6.15-21.044,2.864a29.127,29.127,0,0,1-4.314-2.816,34.3,34.3,0,0,1-7.3-6.58c-2.069-2.75,7.445-13.213,6.053-16.36-2.494-5.638-1.113-19.011-4.984-23.81-.563-.7,4.556-.07,4.536-.966-.041-1.813,4.308-4.435,5.985-5.125,2.866-1.179,6.165-3.583,6.645-6.645,6.094,7.991-11.017,32.137-1.4,35.057a.992.992,0,0,0,1.526-.848c.546-2.284.739-4.636,1.138-6.95a39.581,39.581,0,0,1,4.176-12.043C690.69,401.309,694.378,393.588,696.718,398.455Z" transform="translate(-360.16 -258.077)" fill="#2f2e41"/>
    <path id="Path_272" data-name="Path 272" d="M700.681,435.284c-.489,1.314-.045,2.767.332,4.117a41.482,41.482,0,0,1,1.512,12.037.438.438,0,0,1-.512.525c-1.6.1-3.431.108-4.516-1.071" transform="translate(-374.403 -279.089)" opacity="0.1"/>
    <path id="Path_273" data-name="Path 273" d="M195.2,676.732H149.242l-7.994-27.254A11.14,11.14,0,0,1,151.936,635.2h40.2a11.14,11.14,0,0,1,10.727,14.143Z" transform="translate(-125.957 -368.309)" fill="#3f3d56"/>
  </g>
</svg>
