<svg xmlns="http://www.w3.org/2000/svg" xmlns:xlink="http://www.w3.org/1999/xlink" width="672.315" height="526.618" viewBox="0 0 672.315 526.618">
  <defs>
    <linearGradient id="linear-gradient" x1="0.5" y1="1" x2="0.5" gradientUnits="objectBoundingBox">
      <stop offset="0" stop-color="gray" stop-opacity="0.251"/>
      <stop offset="0.54" stop-color="gray" stop-opacity="0.122"/>
      <stop offset="1" stop-color="gray" stop-opacity="0.102"/>
    </linearGradient>
    <linearGradient id="linear-gradient-2" x1="0" y1="0.5" x2="1" y2="0.5" xlink:href="#linear-gradient"/>
    <filter id="Ellipse_19">
      <feOffset input="SourceAlpha"/>
      <feGaussianBlur stdDeviation="5.5" result="blur"/>
      <feFlood flood-color="#d1b11b" result="color"/>
      <feComposite operator="out" in="SourceGraphic" in2="blur"/>
      <feComposite operator="in" in="color"/>
      <feComposite operator="in" in2="SourceGraphic"/>
    </filter>
    <filter id="Ellipse_19-2">
      <feOffset input="SourceAlpha"/>
      <feGaussianBlur stdDeviation="5.5" result="blur-2"/>
      <feFlood flood-color="#d1b11b" result="color-2"/>
      <feComposite operator="out" in="SourceGraphic" in2="blur-2"/>
      <feComposite operator="in" in="color-2"/>
      <feComposite operator="in" in2="SourceGraphic"/>
    </filter>
    <filter id="Ellipse_19-3">
      <feOffset input="SourceAlpha"/>
      <feGaussianBlur stdDeviation="5.5" result="blur-3"/>
      <feFlood flood-color="#d1b11b" result="color-3"/>
      <feComposite operator="out" in="SourceGraphic" in2="blur-3"/>
      <feComposite operator="in" in="color-3"/>
      <feComposite operator="in" in2="SourceGraphic"/>
    </filter>
    <filter id="Ellipse_19-4">
      <feOffset input="SourceAlpha"/>
      <feGaussianBlur stdDeviation="5.5" result="blur-4"/>
      <feFlood flood-color="#d1b11b" result="color-4"/>
      <feComposite operator="out" in="SourceGraphic" in2="blur-4"/>
      <feComposite operator="in" in="color-4"/>
      <feComposite operator="in" in2="SourceGraphic"/>
    </filter>
    <filter id="Ellipse_19-5">
      <feOffset input="SourceAlpha"/>
      <feGaussianBlur stdDeviation="5.5" result="blur-5"/>
      <feFlood flood-color="#d1b11b" result="color-5"/>
      <feComposite operator="out" in="SourceGraphic" in2="blur-5"/>
      <feComposite operator="in" in="color-5"/>
      <feComposite operator="in" in2="SourceGraphic"/>
    </filter>
    <filter id="Ellipse_19-6">
      <feOffset input="SourceAlpha"/>
      <feGaussianBlur stdDeviation="5.5" result="blur-6"/>
      <feFlood flood-color="#d1b11b" result="color-6"/>
      <feComposite operator="out" in="SourceGraphic" in2="blur-6"/>
      <feComposite operator="in" in="color-6"/>
      <feComposite operator="in" in2="SourceGraphic"/>
    </filter>
    <filter id="Ellipse_19-7">
      <feOffset input="SourceAlpha"/>
      <feGaussianBlur stdDeviation="5.5" result="blur-7"/>
      <feFlood flood-color="#d1b11b" result="color-7"/>
      <feComposite operator="out" in="SourceGraphic" in2="blur-7"/>
      <feComposite operator="in" in="color-7"/>
      <feComposite operator="in" in2="SourceGraphic"/>
    </filter>
    <filter id="Ellipse_19-8">
      <feOffset input="SourceAlpha"/>
      <feGaussianBlur stdDeviation="5.5" result="blur-8"/>
      <feFlood flood-color="#d1b11b" result="color-8"/>
      <feComposite operator="out" in="SourceGraphic" in2="blur-8"/>
      <feComposite operator="in" in="color-8"/>
      <feComposite operator="in" in2="SourceGraphic"/>
    </filter>
    <filter id="Ellipse_19-9">
      <feOffset input="SourceAlpha"/>
      <feGaussianBlur stdDeviation="5.5" result="blur-9"/>
      <feFlood flood-color="#d1b11b" result="color-9"/>
      <feComposite operator="out" in="SourceGraphic" in2="blur-9"/>
      <feComposite operator="in" in="color-9"/>
      <feComposite operator="in" in2="SourceGraphic"/>
    </filter>
    <filter id="Ellipse_19-10">
      <feOffset input="SourceAlpha"/>
      <feGaussianBlur stdDeviation="5.5" result="blur-10"/>
      <feFlood flood-color="#d1b11b" result="color-10"/>
      <feComposite operator="out" in="SourceGraphic" in2="blur-10"/>
      <feComposite operator="in" in="color-10"/>
      <feComposite operator="in" in2="SourceGraphic"/>
    </filter>
  </defs>
  <g id="Group_92" data-name="Group 92" transform="translate(-143.685 -1804.076)">
    <g id="Group_80" data-name="Group 80" transform="translate(143.685 1947.259)">
      <g id="Group_79" data-name="Group 79">
        <path id="Path_64" data-name="Path 64" d="M432.594,414.809c12.988-.741,29.1-9.55,41.631-13.446q22.244-6.9,44.663-13.276,78.049-22.208,157.774-37.846,7.44-1.463,14.9-2.856A105.494,105.494,0,0,0,656.74,305.56a106.966,106.966,0,0,0,.588-11.037c0-58.262-46.562-105.494-104.019-105.494a102.361,102.361,0,0,0-50.481,13.252c-40.667-26.751-93.746-42.942-151.82-42.942-82.522,0-154.965,32.692-196.014,81.922l192.923,32.593,118.323,19.981c-134.89,4.026-270.2,8.028-404.7-1.422A106.616,106.616,0,0,0,46.19,426.992h0c0,2.11.088,4.2.247,6.276,3.426.981,6.735,1.933,9.7,2.556q71.467,15.1,143.852,25.27c-35.56,21.926-78.866,25.029-119.886,34.315,19.863,16.4,46.838,26.445,76.563,26.445H599.259c47.925,0,86.77-33.362,86.77-74.523h0a105.892,105.892,0,0,0,14.1-38.722C611.453,417.172,521.668,409.737,432.594,414.809Z" transform="translate(-28.425 -138.419)" fill="#6c63ff" opacity="0.1"/>
        <path id="Path_65" data-name="Path 65" d="M700.294,390.3a105.782,105.782,0,0,0-44.663-86.635,108.52,108.52,0,0,0,.588-11.031c0-58.262-46.585-105.476-104.019-105.476A102.421,102.421,0,0,0,501.712,200.4c-40.667-26.763-93.752-42.959-151.826-42.959-94.463,0-175.774,42.871-211.834,104.348-2-.117-4.02-.182-6.053-.182-57.44,0-104.019,47.232-104.019,105.494a106.093,106.093,0,0,0,17.113,57.986h0C45.093,477.507,94.57,520,155.576,520h442.6c47.919,0,86.765-33.368,86.765-74.529h0a106.088,106.088,0,0,0,15.35-55.177Z" transform="translate(-27.98 -137.635)" fill="#6c63ff" opacity="0.1"/>
        <path id="Path_66" data-name="Path 66" d="M857.333,354.037a6.542,6.542,0,0,0-2.868-1.258c-1.1-.253-2.221-.411-3.338-.588l-14.469-2.086a17.032,17.032,0,0,0-4.431-.235,5.624,5.624,0,0,0-3.855,2,3,3,0,0,0-.67,1.881,4.958,4.958,0,0,0,.658,1.951,6.514,6.514,0,0,1,.358.864,19.793,19.793,0,0,0,.517,1.969,1.669,1.669,0,0,0,.247.388.635.635,0,0,1,0,.1c-.159.811.353,1.657.124,2.439-.2.67-.852,1.075-1.264,1.634a2.456,2.456,0,0,0-.059,2.709c.441.682,1.24,1.146,1.469,1.928.3,1.028-.511,2.022-1.234,2.815a43.588,43.588,0,0,0-3.679,4.637,2.874,2.874,0,0,0-.588,1.381c-.065,1.023.917,1.922.746,2.938-.135.8-.917,1.287-1.593,1.763a9.91,9.91,0,0,0-4.7,7.281,25.507,25.507,0,0,0-5.689-12.929,9.246,9.246,0,0,1-2.11-3.309c-.129-.511-.153-1.058-.329-1.551-.588-1.557-2.456-2.227-3.273-3.661-.588-1.011-.588-2.31-1.316-3.2s-1.875-1.087-2.5-1.945a12.411,12.411,0,0,1-.8-1.81,3.954,3.954,0,0,0-1.087-1.3,3.152,3.152,0,0,0-.27-.194.934.934,0,0,0,.312-.693c0-.688-.682-1.14-1.275-1.481-.764-.435-1.51-.9-2.239-1.393a5.237,5.237,0,0,0,2-1.64,5.39,5.39,0,0,0,.764-3.526,4.45,4.45,0,0,0-1.052-2.7c-.37-.394-.834-.676-1.222-1.046a8.575,8.575,0,0,1-1.763-3.773c-.552-1.763-1.416-3.614-3.026-4.549-.776-.453-1.681-.664-2.439-1.14a2.128,2.128,0,0,1-1.128-2.239c.176-.588.723-.993,1.093-1.493a2.974,2.974,0,0,0-.746-4.114c-.435-.276-.97-.517-1.058-1.023a1.869,1.869,0,0,1-1.363-1.446,5.57,5.57,0,0,1,0-2.092q.229-1.64.453-3.267a2.128,2.128,0,0,0,1.634,0,14.394,14.394,0,0,0,1.763,2.3,23.016,23.016,0,0,1,4.114,7.14,4.3,4.3,0,0,0,1.545,2.492c.3.17.641.259.935.441a3.491,3.491,0,0,1,.917.94c.705.935,1.41,1.863,2.11,2.8l.035.141a.828.828,0,0,0,.094.235.782.782,0,0,0,.505.259c2.163.5,4.59.958,6.464-.223,1.693-1.058,2.433-3.15,3.867-4.549,1.017-.993,2.456-1.763,2.744-3.162a10.407,10.407,0,0,1-1.011-.37c.294-.294.588-.635.987-1.023a12.44,12.44,0,0,0,1.563-1.863,12,12,0,0,0,1.175-2.633q1.7-4.842,3.409-9.691c.541-1.528,1.081-3.068,1.763-4.555.705-1.61,1.54-3.156,2.31-4.737a62.879,62.879,0,0,0,4.572-12.87,4.7,4.7,0,0,0,.182-1.875,4.942,4.942,0,0,0-1.669-2.539,12.248,12.248,0,0,0-2.5-2.074,4.114,4.114,0,0,0-3.138-.505,4.534,4.534,0,0,0-2.8,3.526,36.977,36.977,0,0,0-.364,4.7c-.212,2.263-.987,4.449-1.175,6.717-.1,1.311,0,2.639-.159,3.949a14.409,14.409,0,0,1-1.763,4.866,31.493,31.493,0,0,1-7.6,9.368c-.358.3-.729.588-1.081.911a5.6,5.6,0,0,1,.076-.764,4.622,4.622,0,0,0-.746.264,2.237,2.237,0,0,0-.088-.881c-.47-1.4-2.562-1.763-2.938-3.191a6.513,6.513,0,0,1-.1-1.07c-.124-1.252-.976-2.31-1.27-3.526-.27-1.123-.065-2.351-.588-3.391a9.481,9.481,0,0,0-1.563-1.763,6.913,6.913,0,0,1-1.487-2.8c-.076-.288-.147-.588-.229-.876a4.008,4.008,0,0,0-.211-1.934c-.535-1.328-1.916-2.18-2.415-3.526-.388-1.046-.217-2.351-.952-3.162a3.436,3.436,0,0,0-1.393-.84,30.986,30.986,0,0,0-8.386-1.981c-1.61-.147-3.385-.229-4.537-1.363-1.346-1.316-1.41-3.685-2.985-4.7-1.387-.9-3.35-.235-4.425,1.028a5.592,5.592,0,0,0-.447.588,6.291,6.291,0,0,1-.123-2.409c0-.2.041-.405.059-.588a11.753,11.753,0,0,0,6.371-5.03v.035l.07.182c.17.429.441.84.84.887h0a1.175,1.175,0,0,0,.729-.264,6.037,6.037,0,0,0,.976-.846q.223-.247.423-.511a6.657,6.657,0,0,0,.694-1.175,6.986,6.986,0,0,0,.588-1.969c.106-.682.118-1.381.235-2.063a12.733,12.733,0,0,1,.429-1.557c.059-.17.118-.341.17-.511s.129-.4.188-.588a13.612,13.612,0,0,0,.588-3.726v-.635a6.2,6.2,0,0,0-1.975-4.378c-1.011-.829-2.351-1.175-3.091-2.3a10.933,10.933,0,0,1-.87-2.6,5.877,5.877,0,0,0-4.619-4.155,5.142,5.142,0,0,0-3.655,1h0l-.082.065h0a5.878,5.878,0,0,0-1.457,1.622,4.847,4.847,0,0,1-2.069-1.175c-.588-.547-1.04-1.234-1.634-1.763a4.2,4.2,0,0,0-4.184-.882,5,5,0,0,0-2.991,3.426c-.323,1.211-.265,2.6-.94,3.614-.523.788-1.381,1.175-1.98,1.892a3.559,3.559,0,0,0-.741,1.569h0a4.249,4.249,0,0,0-.1.981h0a1.79,1.79,0,0,0,.035.435v.071a3.141,3.141,0,0,0,.1.476h0a4.115,4.115,0,0,0,.876,1.61,3.866,3.866,0,0,0,1.416,1.023,5.74,5.74,0,0,0,.682.217l.7.159.247.059a11.718,11.718,0,0,0-.329,10.349,4.725,4.725,0,0,1-.059.494,40.647,40.647,0,0,0,.306,6.929,3.719,3.719,0,0,1-.429,2.639,5.006,5.006,0,0,1-.852.758c.317-.411.641-.817.97-1.222a4.191,4.191,0,0,0-3.315-.858,15.357,15.357,0,0,0-6.464,1.975c-1.316.758-2.668,1.763-4.173,1.587-.887-.1-1.763-.588-2.627-.353a5.323,5.323,0,0,0-1.346.8,1.822,1.822,0,0,1-1.1.341,23.859,23.859,0,0,0-3.456-2.827,27.215,27.215,0,0,1-3.438-3.685c-1.9-2.3-3.8-4.6-5.671-6.923-1.575-1.951-3.191-4.061-3.467-6.558a6.433,6.433,0,0,1-.041-.746,18.981,18.981,0,0,1,.447-3.526,1.76,1.76,0,0,0,0-.852c-.176-.588-.852-.805-1.434-.934h0c.076-.453.129-.917.159-1.358.329-5.054-.029-10.19,1.04-15.139a10.292,10.292,0,0,1,2.439-5.213c2.145-2.169,5.736-2.692,7.381-5.26a6,6,0,0,0-.9-7.052A8.9,8.9,0,0,0,726,226.265a3.572,3.572,0,0,0-2.016.541,4.282,4.282,0,0,0-1.222,1.857l-2.521,6.129a37.076,37.076,0,0,0-1.845,4.925c-.705,2.574-.864,5.289-1.422,7.887,0,2-1.287,4.49-1.992,6.329-.788,2.069-1.64,4.114-2.351,6.223-.176.529-.793,2.1-1.175,3.526a2.148,2.148,0,0,0-.4.3,10.619,10.619,0,0,0-.834,1.24c-.535.705-1.4,1.081-1.992,1.763s-.711,1.933.106,2.274a2.4,2.4,0,0,0,.511.112,1.668,1.668,0,0,1,1.416,2.327c-.129.917-.588,1.763-.664,2.68-.159,1.622.793,3.132,1.71,4.5a38.774,38.774,0,0,0,3.138,4.225c.829.928,1.763,1.763,2.6,2.656,3.179,3.267,5.706,7.087,8.562,10.637a23.587,23.587,0,0,0,3.485,3.655,26.257,26.257,0,0,0,2.639,1.816l4.913,3.115a5.384,5.384,0,0,0,1.857.876,2.467,2.467,0,0,0,.658,0c.029.147.053.288.088.435.382,1.54,1.222,2.938,1.316,4.508s-.047,3.173.065,4.76c.106,1.463.429,2.938.511,4.378a28.128,28.128,0,0,1-1.175,8.227c-.993,3.973-1.593,8.028-3.526,11.63a6.839,6.839,0,0,0-1.175,3.138,1.623,1.623,0,0,0,.035.411h0l-.881.5c-.259.147-.517.294-.752.447a6.29,6.29,0,0,0-2.768,2.791c-.37,1.017-.2,2.18-.646,3.168a1.411,1.411,0,0,1-.07.129c-.47.917-1.4,1.6-1.616,2.6h0c-.159.77.147,1.587,0,2.351v.029a8.491,8.491,0,0,0-.317,1.175,1.4,1.4,0,0,0,.035.388,2.24,2.24,0,0,0,.705,1.146,4.7,4.7,0,0,0,.688.547q.376.247.776.458l.153.082c.223.117.447.229.676.335l.153.065c.264.118.535.223.805.317l.188.059c.211.071.429.135.646.188l.147.047.135.029.588.123.217.041q.388.065.793.106h.235c.2,0,.394.029.587.035h1.076a6.575,6.575,0,0,0,.829-.076h.088c.247-.035.494-.076.741-.129l.188-.041c.229-.053.458-.106.688-.176l.123-.035c.276-.082.552-.17.823-.276a21.59,21.59,0,0,0,2.715-1.346c.588-.323,1.175-.652,1.763-.952a13.673,13.673,0,0,1,1.34-.588,7.564,7.564,0,0,1,3.526-.588,13.822,13.822,0,0,1,1.763.359v.194q.717,4.231,1.416,8.463a17.242,17.242,0,0,1,2.433-1.463,5.4,5.4,0,0,0-.312,1.322,5.232,5.232,0,0,0,0,1.052,2.283,2.283,0,0,1-.165,1.616c-.206.27-.588.423-.7.729a2.487,2.487,0,0,0-.059.958,1.528,1.528,0,0,1-1.4,1.422,2.233,2.233,0,0,1-.887,2.621,3.111,3.111,0,0,0-.682.447,2.036,2.036,0,0,0-.394.887,15.7,15.7,0,0,1-4.6,7.563,14.793,14.793,0,0,0-2.274,2.221,10.116,10.116,0,0,0-1.028,2.027q-2.351,5.748-4.772,11.5a25.52,25.52,0,0,0-2.045,6.635c-.705,6.335-6.347,11.707-5.289,17.995a8.816,8.816,0,0,0,1.834,4.3,10.813,10.813,0,0,0,4.7,2.885,85.6,85.6,0,0,0,14.069,3.7l7.475,1.534a32.691,32.691,0,0,0,4.455.705,29.161,29.161,0,0,1,5.412.411,16.8,16.8,0,0,0,3.25.864c.964.053,2.151-.153,2.721.635s.129,1.828.67,2.527c.87,1.111,2.991,0,3.937,1.046a4.869,4.869,0,0,1,.588,1.3,2.353,2.353,0,0,0,.588.74,4.95,4.95,0,0,1,.071,1,17.317,17.317,0,0,1-.846,4.008q-1.058,3.579-2.11,7.164a15.878,15.878,0,0,0-.588,2.586,6.2,6.2,0,0,0,0,1.281,3.519,3.519,0,0,0,2.11,3.062,3.867,3.867,0,0,0,2.856-.353,12.623,12.623,0,0,0,2.351-1.587,16.052,16.052,0,0,0,3.391-3.491c2.938-4.4,1.986-10.343,4.049-15.2,1.369-3.244,4.037-5.877,4.925-9.3a3.721,3.721,0,0,0,.071-2.01,4.166,4.166,0,0,0-2.792-2.268h-.053a24.1,24.1,0,0,0-2.938-.84c-.247-.053-.5-.094-.752-.135a4.613,4.613,0,0,1-1.3-1.692,3.929,3.929,0,0,0-.276-1.017,1.058,1.058,0,0,0-.846-.47c-.588-.059-1.375.153-2.016.106-1.31-.094-2.18-1.381-3.356-1.975a6.852,6.852,0,0,0-3.7-.359,3.421,3.421,0,0,1-1.34-.082,5.034,5.034,0,0,1-1.41-.97,5.912,5.912,0,0,0-5.177-1.04,5.645,5.645,0,0,1-1.763.4c-1.146-.065-1.957-1.087-2.8-1.863-2.315-2.121-5.612-2.68-8.421-4.072a1.923,1.923,0,0,1-1.011-.87c-.323-.8.406-1.6,1.064-2.145l4.831-4.014c5.289-4.4,11.9-7.7,14.357-14.151a8.19,8.19,0,0,1,1.175-2.415,3.284,3.284,0,0,1,.652-.588,4.936,4.936,0,0,1,3.614-.705,12.207,12.207,0,0,1,4.255,1.857q3.156,1.91,6.141,4.114a54.341,54.341,0,0,1,5.612,4.607c3.085,2.938,5.654,6.423,8.527,9.591s6.159,6.124,10.149,7.64,8.815,1.452,12.241-1.093c3.955-2.938,5.224-8.192,6.224-13.011,2.2-2.127,2.868-5.366,3.943-8.228.676-1.816,1.54-3.526,2.268-5.336.87-2.127,1.552-4.325,2.233-6.517a31.336,31.336,0,0,0,1.563-6.8c.282-3.661-.7-7.557.329-11a40.537,40.537,0,0,0,3.926-1.51,19.452,19.452,0,0,1,6.218-.535h.135a3.207,3.207,0,0,0,2.069-.488,3.293,3.293,0,0,0,.852-2.5C859.161,358.022,859.02,355.495,857.333,354.037ZM772.184,253.791a4.365,4.365,0,0,1-1.487.106Z" transform="translate(-308.266 -166.01)" fill="url(#linear-gradient)"/>
        <path id="Path_67" data-name="Path 67" d="M806.055,324.379a6.464,6.464,0,0,1-2.445,1.3l-4.167,1.493c-2.263.811-4.625,1.628-7.011,1.334-1.334-.164-7.052-1-7.916-2.045-1.316-1.61,3.3-3.979,4.872-5.336a6.653,6.653,0,0,0,.987-.87,3.542,3.542,0,0,0,.429-2.627,40.555,40.555,0,0,1-.305-6.917,13.951,13.951,0,0,1,.235-1.64c.588-2.7,3.1-1.716,5.089-1a39.789,39.789,0,0,1,6.905,2.991,4.953,4.953,0,0,1,1.7,1.446c.87,1.316.523,3.044.382,4.7a4.4,4.4,0,0,0,.688,3.456,8.893,8.893,0,0,1,1.111,1.175A2.2,2.2,0,0,1,806.055,324.379Z" transform="translate(-339.821 -199.421)" fill="#be6f72"/>
        <path id="Path_68" data-name="Path 68" d="M719.32,249.41c.588-2.6.717-5.289,1.422-7.869a36.83,36.83,0,0,1,1.845-4.907l2.592-6.047a4.268,4.268,0,0,1,1.222-1.851,3.62,3.62,0,0,1,2.016-.541,8.98,8.98,0,0,1,6.923,2.556,5.934,5.934,0,0,1,.9,7.011c-1.645,2.568-5.236,3.085-7.381,5.248a10.275,10.275,0,0,0-2.439,5.2c-1.07,4.936-.711,10.055-1.04,15.1-.106,1.569-.411,3.361-1.763,4.172a5.141,5.141,0,0,1-2.633.511l-3.855.065c-.647,0-2.991.406-3.42-.082-.752-.852.964-5.1,1.275-6.041.693-2.1,1.546-4.143,2.351-6.206C718.033,253.888,719.32,251.4,719.32,249.41Z" transform="translate(-310.643 -166.806)" fill="#be6f72"/>
        <path id="Path_69" data-name="Path 69" d="M845.008,574.742c-.888,3.4-3.555,6.041-4.925,9.279-2.063,4.848-1.134,10.778-4.049,15.162a16.014,16.014,0,0,1-3.391,3.5,12.6,12.6,0,0,1-2.351,1.581,3.867,3.867,0,0,1-2.856.353,3.517,3.517,0,0,1-2.11-3.056,6.177,6.177,0,0,1,0-1.275,15.8,15.8,0,0,1,.588-2.58q1.058-3.567,2.11-7.146a17.3,17.3,0,0,0,.846-4c.076-1.481-.864-3.409-.464-4.79.182-.623.864-1.175,1.175-1.7a9.83,9.83,0,0,0,1.011-2.4,14.945,14.945,0,0,1,1.822-4.772,11.2,11.2,0,0,1,2.292-2.145,6.077,6.077,0,0,1,2.186-1.228,5.35,5.35,0,0,1,2.351.111,23.073,23.073,0,0,1,2.938.835h.053a4.114,4.114,0,0,1,2.791,2.262A3.7,3.7,0,0,1,845.008,574.742Z" transform="translate(-356.73 -307.513)" fill="#3f3d56"/>
        <path id="Path_70" data-name="Path 70" d="M943.218,448.231a3.256,3.256,0,0,1-.852,2.5,3.208,3.208,0,0,1-2.069.488h-.159a19.805,19.805,0,0,0-6.218.535c-1.51.5-2.9,1.416-4.472,1.6-2.169.247-4.208-.94-6.13-1.975a60.972,60.972,0,0,0-5.565-2.645c-1.246-.511-3.791-.84-4.39-2.2a20.028,20.028,0,0,1-.517-1.963,6.549,6.549,0,0,0-.358-.864,4.964,4.964,0,0,1-.658-1.945,3,3,0,0,1,.67-1.881,5.636,5.636,0,0,1,3.849-1.981,17.038,17.038,0,0,1,4.431.235l14.469,2.08c1.117.159,2.239.317,3.338.588a6.548,6.548,0,0,1,2.868,1.258C943.165,443.489,943.306,446.01,943.218,448.231Z" transform="translate(-392.411 -253.252)" fill="#3f3d56"/>
        <path id="Path_71" data-name="Path 71" d="M862.32,455.545c-1.763,3.72-.494,8.122-.811,12.235a31.186,31.186,0,0,1-1.563,6.782c-.682,2.186-1.363,4.378-2.233,6.5-.729,1.763-1.593,3.526-2.268,5.324-1.075,2.868-1.763,6.094-3.943,8.227-1,4.807-2.268,10.061-6.223,12.976-3.438,2.539-8.227,2.627-12.241,1.093s-7.275-4.472-10.149-7.64-5.442-6.617-8.527-9.567a53.462,53.462,0,0,0-5.624-4.6q-2.985-2.168-6.141-4.078a12.3,12.3,0,0,0-4.255-1.851,4.936,4.936,0,0,0-3.614.705,3.274,3.274,0,0,0-.652.588,8.086,8.086,0,0,0-1.175,2.409c-2.468,6.429-9.091,9.732-14.38,14.116l-4.831,4c-.658.547-1.387,1.346-1.064,2.139a1.921,1.921,0,0,0,1.011.87c2.809,1.387,6.106,1.945,8.421,4.061.846.776,1.657,1.8,2.8,1.857a5.628,5.628,0,0,0,1.763-.394,5.929,5.929,0,0,1,5.177,1.034,5.033,5.033,0,0,0,1.411.97,3.426,3.426,0,0,0,1.34.082,7.151,7.151,0,0,1,3.7.359c1.122.558,2.045,1.875,3.356,1.969.641.047,1.4-.165,2.016-.106a1.058,1.058,0,0,1,.846.47,3.9,3.9,0,0,1,.276,1.011c.241.829,1.052,1.334,1.581,2.016a5.569,5.569,0,0,1,.846,3.791,16.173,16.173,0,0,1-5.148,10.825,6.371,6.371,0,0,1-3.168,1.763,2.938,2.938,0,0,1-3.138-1.393,4.835,4.835,0,0,0-.588-1.293c-.946-1.04-3.068.065-3.937-1.046-.541-.693-.153-1.8-.67-2.521s-1.763-.588-2.721-.629a17.233,17.233,0,0,1-3.25-.864,29.2,29.2,0,0,0-5.413-.411,32.657,32.657,0,0,1-4.455-.705l-7.475-1.528a88.6,88.6,0,0,1-14.069-3.685,11.321,11.321,0,0,1-4.7-2.88,8.816,8.816,0,0,1-1.834-4.29c-1.064-6.27,4.578-11.63,5.289-17.948a25.18,25.18,0,0,1,2.045-6.617q2.392-5.736,4.772-11.477a10.225,10.225,0,0,1,1-2.033,14.753,14.753,0,0,1,2.274-2.216,15.649,15.649,0,0,0,4.6-7.546,2.035,2.035,0,0,1,.394-.887,3.309,3.309,0,0,1,.682-.441,2.233,2.233,0,0,0,.887-2.615,1.528,1.528,0,0,0,1.4-1.422,2.457,2.457,0,0,1,.059-.952c.141-.306.494-.458.7-.729a2.272,2.272,0,0,0,.164-1.61,5.232,5.232,0,0,1,0-1.052,5.4,5.4,0,0,1,1.575-3.285c1.4-1.381,3.4-1.023,5.342-1.352a30.6,30.6,0,0,0,5.642-1.8,55.427,55.427,0,0,1,15.932-3.685,34.785,34.785,0,0,1,16.09,2.562,9.157,9.157,0,0,1,2.075,1.175,3.934,3.934,0,0,1,1.087,1.3,12.1,12.1,0,0,0,.8,1.8c.629.858,1.816,1.134,2.5,1.945s.746,2.18,1.316,3.185c.817,1.434,2.709,2.1,3.273,3.655.176.494.2,1.034.329,1.546a8.841,8.841,0,0,0,2.11,3.3,25.392,25.392,0,0,1,5.689,12.929,9.834,9.834,0,0,1,4.7-7.264c.676-.441,1.457-.928,1.593-1.728.171-1.011-.811-1.91-.746-2.938a2.882,2.882,0,0,1,.588-1.375,43.513,43.513,0,0,1,3.679-4.625c.723-.793,1.534-1.763,1.234-2.809-.229-.782-1.028-1.24-1.469-1.922a2.445,2.445,0,0,1,.059-2.7c.411-.558,1.064-.964,1.263-1.628.229-.782-.282-1.628-.123-2.433a3.009,3.009,0,0,1,1.21-1.569,7.4,7.4,0,0,1,7.552-1.869c2.75.382,5.836.97,7.387,3.273A5.575,5.575,0,0,1,862.32,455.545Z" transform="translate(-324.231 -256.804)" fill="#65617d"/>
        <path id="Path_72" data-name="Path 72" d="M943.205,448.231a3.256,3.256,0,0,1-.852,2.5,3.208,3.208,0,0,1-2.069.488h-.159c.241-1.222,1.728-1.921,1.986-3.162a2.8,2.8,0,0,0-.646-2.133,10.593,10.593,0,0,0-5.289-3.326,35.036,35.036,0,0,0-17.666-1.322,17.788,17.788,0,0,0-4.643,1.428,15.149,15.149,0,0,0-1.411,1,4.97,4.97,0,0,1-.658-1.945,3,3,0,0,1,.67-1.881,5.637,5.637,0,0,1,3.849-1.98,17.05,17.05,0,0,1,4.431.235l14.469,2.081c1.117.159,2.239.317,3.338.588a6.547,6.547,0,0,1,2.868,1.258C943.152,443.489,943.294,446.01,943.205,448.231Z" transform="translate(-392.399 -253.252)" opacity="0.1"/>
        <path id="Path_73" data-name="Path 73" d="M845.008,575.475c-.888,3.4-3.555,6.041-4.925,9.279-2.063,4.848-1.134,10.778-4.049,15.162a16.017,16.017,0,0,1-3.391,3.5,12.593,12.593,0,0,1-2.351,1.581,3.866,3.866,0,0,1-2.856.353,3.517,3.517,0,0,1-2.11-3.056,6.177,6.177,0,0,1,0-1.275l.035.094c.511,1.234,1.346,2.527,2.662,2.745a3.6,3.6,0,0,0,2.715-.958c1.939-1.557,3.068-3.879,4.143-6.118a25.439,25.439,0,0,0,1.987-5.072c.235-1,.347-2.022.588-3.021,1.116-4.854,4.919-8.815,5.759-13.734a3.357,3.357,0,0,0,.047-1.029,5.191,5.191,0,0,0-.505-1.281,6.337,6.337,0,0,1-.447-1.422,4.113,4.113,0,0,1,2.791,2.263,3.7,3.7,0,0,1-.094,1.992Z" transform="translate(-356.73 -308.246)" opacity="0.1"/>
        <path id="Path_74" data-name="Path 74" d="M817.754,540.02a8.516,8.516,0,0,1-2.65,3.62,12.928,12.928,0,0,1-5.706,2.468,5.676,5.676,0,0,1-2.938-.035c-1.3-.452-2.245-1.675-3.579-2.027a24.5,24.5,0,0,0-2.938-.17c-1.734-.241-3.08-1.563-4.478-2.621-4.284-3.22-9.908-4.26-14.192-7.481a1.319,1.319,0,0,1-.459-.476,1.413,1.413,0,0,1-.088-.664,13.517,13.517,0,0,1,1.287-5.647,19.7,19.7,0,0,1,2.422-3.45c3.837-4.7,7.693-9.438,12.288-13.4a18.622,18.622,0,0,1,6.465-3.967c1.352-.417,4.02-.811,5.665-.106a3.273,3.273,0,0,0-.652.588,8.086,8.086,0,0,0-1.175,2.409c-2.474,6.435-9.1,9.738-14.386,14.122l-4.831,4c-.658.547-1.387,1.346-1.064,2.139a1.922,1.922,0,0,0,1.011.87c2.809,1.387,6.106,1.945,8.421,4.061.846.776,1.657,1.8,2.8,1.857a5.624,5.624,0,0,0,1.763-.394,5.93,5.93,0,0,1,5.178,1.034,5.033,5.033,0,0,0,1.41.97,3.423,3.423,0,0,0,1.34.082,7.156,7.156,0,0,1,3.7.358c1.122.558,2.045,1.875,3.356,1.969C816.379,540.173,817.143,539.949,817.754,540.02Z" transform="translate(-338.35 -281.219)" opacity="0.1"/>
        <path id="Path_75" data-name="Path 75" d="M747.958,413.321a6.24,6.24,0,0,0-2.762,2.774c-.376,1.017-.2,2.18-.652,3.168s-1.469,1.675-1.692,2.733c-.159.77.153,1.581,0,2.351a10.141,10.141,0,0,0-.323,1.222c-.059.876.693,1.587,1.428,2.075a11.929,11.929,0,0,0,10.678,1.175,48.231,48.231,0,0,0,4.49-2.3,8.879,8.879,0,0,1,4.837-1.175c.97.106,1.9.458,2.868.588a3.009,3.009,0,0,0,2.686-.8,3.347,3.347,0,0,0,.588-1.393,20.814,20.814,0,0,0-.329-9.891c-.776-3.244-1.951-6.365-2.78-9.591a44.021,44.021,0,0,0-2.022-7.1,9.323,9.323,0,0,0-4.942-5.23.923.923,0,0,0-.588-.076,1,1,0,0,0-.382.282,18.074,18.074,0,0,0-4.031,6.782c-.922,2.815-1.175,5.8-2.022,8.627a8.835,8.835,0,0,1-1.763,3.65A20.149,20.149,0,0,1,747.958,413.321Z" transform="translate(-322.603 -234.279)" fill="#3f3d56"/>
        <path id="Path_76" data-name="Path 76" d="M770.127,423.693a3.428,3.428,0,0,1-.617,1.393,2.98,2.98,0,0,1-2.686.793c-.964-.118-1.892-.476-2.862-.588a8.863,8.863,0,0,0-4.837,1.175c-1.5.752-2.938,1.687-4.5,2.292a11.866,11.866,0,0,1-7.129.406,11.5,11.5,0,0,1-3.526-1.552,2.528,2.528,0,0,1-1.428-2.074,10.089,10.089,0,0,1,.323-1.216c.153-.77-.153-1.581,0-2.351.223-1.058,1.246-1.763,1.693-2.738s.276-2.145.646-3.162a6.265,6.265,0,0,1,2.768-2.78,21.114,21.114,0,0,0,3.338-2.151,3.317,3.317,0,0,0,.312-.435,10.583,10.583,0,0,0,1.4-3.238c.864-2.833,1.1-5.812,2.016-8.633a18.105,18.105,0,0,1,4.037-6.776.888.888,0,0,1,.376-.282.94.94,0,0,1,.588.071,9.389,9.389,0,0,1,4.942,5.236,46.248,46.248,0,0,1,2.022,7.1c.823,3.226,2,6.359,2.78,9.6A20.91,20.91,0,0,1,770.127,423.693Z" transform="translate(-322.611 -234.25)" opacity="0.1"/>
        <path id="Path_77" data-name="Path 77" d="M809.176,317.2a11.753,11.753,0,0,1-14.316-6.464,13.922,13.922,0,0,1,.235-1.64c.588-2.7,3.1-1.716,5.089-1a39.806,39.806,0,0,1,6.905,2.991,4.954,4.954,0,0,1,1.7,1.446C809.663,313.836,809.317,315.564,809.176,317.2Z" transform="translate(-344.182 -199.433)" opacity="0.1"/>
        <circle id="Ellipse_17" data-name="Ellipse 17" cx="11.754" cy="11.754" r="11.754" transform="translate(449.691 94.228)" fill="#be6f72"/>
        <path id="Path_78" data-name="Path 78" d="M834.691,450.631c0,.976-1.322,1.287-2.3,1.234-3.526-.206-6.976-1.175-10.467-.882-4.413.4-8.469,2.839-12.894,3.062a39.057,39.057,0,0,0-5.119.147c-2.174.405-4.114,1.728-6.329,1.916-1.922.165-3.82-.558-5.742-.482A9.226,9.226,0,0,0,788,456.719a5.4,5.4,0,0,1,1.575-3.285c1.4-1.381,3.4-1.023,5.342-1.352a30.608,30.608,0,0,0,5.642-1.8,55.423,55.423,0,0,1,15.932-3.685,34.784,34.784,0,0,1,16.085,2.545,9.151,9.151,0,0,1,2.074,1.175A.92.92,0,0,1,834.691,450.631Z" transform="translate(-341.353 -256.815)" opacity="0.1"/>
        <path id="Path_79" data-name="Path 79" d="M790.521,336.651l-4.76-1.763-2.01-.741a9.718,9.718,0,0,0-2.562-.682,6.523,6.523,0,0,0-5.7,3.314,17.905,17.905,0,0,0-2.086,6.564q-.811,4.666-1.375,9.368a61.177,61.177,0,0,0-.617,8.545c.135,7.276,1.675,14.451,3.367,21.533a75.739,75.739,0,0,1,1.875,9.55c.141,1.328.206,2.662.347,4,.153,1.5.4,2.979.646,4.466l1.416,8.445A11.164,11.164,0,0,1,785,406.832c1.922-.07,3.826.646,5.742.482,2.2-.182,4.155-1.5,6.329-1.91a38.145,38.145,0,0,1,5.125-.147c4.419-.223,8.48-2.668,12.888-3.062,3.5-.317,6.97.67,10.472.876.976.059,2.3-.253,2.3-1.234,0-.682-.682-1.134-1.275-1.475a62.884,62.884,0,0,1-7.963-5.683,26.88,26.88,0,0,1-6.259-6.194c-3.837-5.965-2.521-14.034-5.795-20.328-2.662-5.113,0-11.812,0-17.577a26.737,26.737,0,0,0-2.251-13.158l-2.286-5.789a.947.947,0,0,0-.27-.441.9.9,0,0,0-.523-.159,5.513,5.513,0,0,0-3.8,1.217c-1.076.876-1.763,2.133-2.821,3.044C793.454,336.3,791.961,337.18,790.521,336.651Z" transform="translate(-334.513 -209.208)" fill="#e3e8f4"/>
        <path id="Path_80" data-name="Path 80" d="M812.877,330.724a10.428,10.428,0,0,1,1.857-4.543c1.075-1.258,3.038-1.922,4.425-1.022,1.575,1.022,1.64,3.385,2.985,4.7,1.175,1.128,2.938,1.217,4.537,1.363a30.77,30.77,0,0,1,8.386,1.975,3.429,3.429,0,0,1,1.393.835c.734.834.588,2.116.952,3.156.5,1.34,1.881,2.192,2.415,3.526.588,1.481,0,3.138-.494,4.66-.887,2.733-1.446,5.571-2.31,8.316a18.512,18.512,0,0,1-4.114,7.516c-.893.917-2.221,1.763-3.4,1.216l-.453,3.262a5.547,5.547,0,0,0,0,2.086,1.869,1.869,0,0,0,1.363,1.446c.088.505.623.746,1.058,1.023a2.938,2.938,0,0,1,.746,4.114c-.37.5-.917.893-1.093,1.487a2.113,2.113,0,0,0,1.128,2.233c.764.47,1.663.688,2.439,1.14a7.584,7.584,0,0,1,3.027,4.531,8.4,8.4,0,0,0,1.763,3.767c.388.37.852.652,1.223,1.04a4.463,4.463,0,0,1,1.052,2.7,5.355,5.355,0,0,1-.764,3.526c-1.175,1.681-3.367,2.18-5.289,2.938-3.12,1.281-5.689,3.573-8.439,5.524a9.006,9.006,0,0,1-3.849,1.81c-1.9.253-3.779-.588-5.695-.664a14.14,14.14,0,0,0-3.4.447l-3.526.764c.188-2.733-1.316-5.471-2.157-8.075a40.129,40.129,0,0,1-1.5-15.28A119.651,119.651,0,0,1,809.6,367c.723-3.526.652-7.211,1.763-10.637,1.04-3.3,2.527-6.464,3.073-9.9C815.333,340.909,811.619,336.2,812.877,330.724Z" transform="translate(-349.188 -206.619)" fill="#3f3d56"/>
        <path id="Path_81" data-name="Path 81" d="M856.219,352.825a6.468,6.468,0,0,1,.676,1.91,6.893,6.893,0,0,0,1.487,2.8,9.636,9.636,0,0,1,1.563,1.763c.541,1.023.335,2.268.588,3.385.294,1.216,1.146,2.274,1.269,3.526a6.447,6.447,0,0,0,.1,1.07c.382,1.422,2.474,1.763,2.938,3.185.312.923-.223,1.928-.123,2.9a2.554,2.554,0,0,1,.053.917,1.864,1.864,0,0,1-.67.858,13.518,13.518,0,0,0-3.867,6.882,39.188,39.188,0,0,0-.887,7.951l-2.3-3.038a3.493,3.493,0,0,0-.917-.94c-.294-.176-.635-.264-.935-.441a4.252,4.252,0,0,1-1.545-2.48,22.921,22.921,0,0,0-4.114-7.123c-.934-1.1-2.022-2.2-2.227-3.632a6.7,6.7,0,0,1,.106-1.963c.588-3.849,1.216-7.793,3.091-11.207.875-1.6,2.01-3.044,2.85-4.666C853.921,353.4,854.714,350.6,856.219,352.825Z" transform="translate(-365.796 -217.853)" fill="#3f3d56"/>
        <path id="Path_82" data-name="Path 82" d="M740.71,330.722a2.685,2.685,0,0,1-.364,1.41,1.857,1.857,0,0,1-1.857.588,5.37,5.37,0,0,1-1.857-.87q-2.456-1.551-4.913-3.109a27.172,27.172,0,0,1-2.639-1.81,23.558,23.558,0,0,1-3.485-3.649c-2.856-3.526-5.383-7.352-8.562-10.578-.864-.881-1.763-1.728-2.6-2.65a38.671,38.671,0,0,1-3.138-4.219c-.917-1.358-1.869-2.862-1.71-4.484.094-.917.535-1.763.664-2.674a1.667,1.667,0,0,0-1.416-2.321,2.388,2.388,0,0,1-.511-.112c-.817-.341-.693-1.6-.106-2.268s1.457-1.034,1.992-1.763a10.629,10.629,0,0,1,.835-1.24,3.178,3.178,0,0,1,1.369-.688,21.194,21.194,0,0,1,10.431-.394c.588.129,1.258.364,1.434.934a1.719,1.719,0,0,1,0,.846,18.933,18.933,0,0,0-.447,3.526,6.255,6.255,0,0,0,.041.741c.276,2.492,1.892,4.6,3.467,6.547,1.869,2.315,3.767,4.613,5.671,6.905a27.148,27.148,0,0,0,3.438,3.673c1.176.976,2.7,1.763,3.614,3.015.746,1.011.505,2.392.588,3.608A80.146,80.146,0,0,1,740.71,330.722Z" transform="translate(-308.262 -192.054)" fill="#3f3d56"/>
        <path id="Path_83" data-name="Path 83" d="M883.975,371.058a12.35,12.35,0,0,0,1.563-1.851,12.2,12.2,0,0,0,1.175-2.627l3.409-9.667c.541-1.528,1.081-3.062,1.763-4.549.705-1.6,1.54-3.15,2.31-4.7a62.7,62.7,0,0,0,4.566-12.782,4.738,4.738,0,0,0,.182-1.875,4.926,4.926,0,0,0-1.669-2.533,12.215,12.215,0,0,0-2.5-2.069,4.114,4.114,0,0,0-3.138-.505,4.534,4.534,0,0,0-2.8,3.526,36.833,36.833,0,0,0-.364,4.7c-.211,2.257-.987,4.437-1.175,6.7-.1,1.311,0,2.633-.159,3.937a14.385,14.385,0,0,1-1.763,4.86,31.547,31.547,0,0,1-7.6,9.344,12.225,12.225,0,0,0-2.28,2.192,7.151,7.151,0,0,0-1.1,2.739,6.307,6.307,0,0,0,.476,4.449,6.532,6.532,0,0,0,4.555,2.715C881.8,373.556,882.347,372.745,883.975,371.058Z" transform="translate(-376.891 -207.872)" fill="#be6f72"/>
        <path id="Path_84" data-name="Path 84" d="M803.115,272.14a5.483,5.483,0,0,1,5.324-2.886,5.877,5.877,0,0,1,4.619,4.149,10.719,10.719,0,0,0,.87,2.6c.729,1.134,2.08,1.463,3.091,2.286a6.188,6.188,0,0,1,1.975,4.372,13.233,13.233,0,0,1-.782,4.942,15.753,15.753,0,0,0-.588,2.069c-.117.682-.129,1.375-.235,2.057a6.7,6.7,0,0,1-2.7,4.449,1.176,1.176,0,0,1-.729.264c-.458-.053-.74-.588-.911-1.07-.934-2.7-.711-5.994-2.433-8.145a8.9,8.9,0,0,0-2.786-2.074,3.589,3.589,0,0,0-1.422-.535,3.745,3.745,0,0,0-2.057.752,12.806,12.806,0,0,1-4.067,1.8,5,5,0,0,1-4.2-.9c-.811-.67-1.4-1.675-2.3-2.2a17.753,17.753,0,0,0-2.727-.852,4.038,4.038,0,0,1-1.634-6.159c.588-.705,1.457-1.1,1.98-1.886.676-1.011.617-2.4.94-3.608a4.966,4.966,0,0,1,2.992-3.414,4.2,4.2,0,0,1,4.184.876c.588.529,1.058,1.211,1.634,1.763a4.7,4.7,0,0,0,4.349,1.175" transform="translate(-341.6 -183.189)" fill="#3f3d56"/>
        <path id="Path_85" data-name="Path 85" d="M829.2,420.808a2.28,2.28,0,0,0-.623,2.492c.129.276,6.194-.893,6.835-.981,1.6-.229,4.4-.117,5.477-1.581,1.916-2.592-4.02-2.016-5.107-1.922C833.717,418.992,830.779,419.274,829.2,420.808Z" transform="translate(-358.028 -245.357)" opacity="0.1"/>
        <path id="Path_86" data-name="Path 86" d="M724.3,291.694a18.938,18.938,0,0,0-.447,3.526,10.27,10.27,0,0,1-5.289-.817l-4.86-1.657a1.381,1.381,0,0,0-1.857.347,41.136,41.136,0,0,1-2.938,3.262,2.392,2.392,0,0,1-.511-.112c-.817-.341-.693-1.6-.106-2.268s1.458-1.034,1.992-1.763a10.6,10.6,0,0,1,.835-1.24,3.178,3.178,0,0,1,1.369-.688,21.192,21.192,0,0,1,10.431-.394c.588.129,1.258.364,1.434.934A1.725,1.725,0,0,1,724.3,291.694Z" transform="translate(-308.291 -192.054)" fill="#3f3d56"/>
        <path id="Path_87" data-name="Path 87" d="M724.3,291.694a18.938,18.938,0,0,0-.447,3.526,10.27,10.27,0,0,1-5.289-.817l-4.86-1.657a1.381,1.381,0,0,0-1.857.347,41.136,41.136,0,0,1-2.938,3.262,2.392,2.392,0,0,1-.511-.112c-.817-.341-.693-1.6-.106-2.268s1.458-1.034,1.992-1.763a10.6,10.6,0,0,1,.835-1.24,3.178,3.178,0,0,1,1.369-.688,21.192,21.192,0,0,1,10.431-.394c.588.129,1.258.364,1.434.934A1.725,1.725,0,0,1,724.3,291.694Z" transform="translate(-308.291 -192.054)" opacity="0.1"/>
        <path id="Path_88" data-name="Path 88" d="M803.335,481.526a2.934,2.934,0,0,1,2.051,1.54l-6.805-1.728-3.526-.9c-.623-.159-2.856-.341-3.268-.829-.588-.717,1.5-.223,1.875-.17,1.14.17,2.28.347,3.414.552C799.215,480.374,801.272,481,803.335,481.526Z" transform="translate(-342.872 -270.315)" opacity="0.1"/>
        <path id="Path_89" data-name="Path 89" d="M806.032,490.065c-.588-.394-2.274-.347-3-.517-1.058-.253-2.1-.588-3.138-.911-2.11-.688-4.2-1.469-6.37-1.975-.4-.088-1.763-.112-1.7-.617s1.363-.682,1.687-.705c1.922-.141,4.319.758,6.106,1.4A26.91,26.91,0,0,1,806.032,490.065Z" transform="translate(-342.931 -272.83)" opacity="0.1"/>
        <path id="Path_90" data-name="Path 90" d="M802.714,471.456c-2.157-.588-4.114-1.928-6.335-2.186a2.574,2.574,0,0,1-1.616-.493,1.9,1.9,0,0,1-.523-.94,10.948,10.948,0,0,1,4.566,1.146,14.368,14.368,0,0,1,2.139,1.14C801.439,470.421,802.179,471.285,802.714,471.456Z" transform="translate(-343.926 -265.616)" opacity="0.1"/>
        <path id="Path_91" data-name="Path 91" d="M873.509,384.46a10.279,10.279,0,0,0,7.205,11.36c-.288,1.393-1.728,2.163-2.745,3.156-1.434,1.393-2.174,3.479-3.867,4.537-1.886,1.175-4.314.717-6.464.223a.788.788,0,0,1-.505-.264.723.723,0,0,1-.094-.229,15.126,15.126,0,0,1-.447-7.992c.588-2.221,2-4.114,3.126-6.077S870.953,385.106,873.509,384.46Z" transform="translate(-373.607 -231.241)" fill="#3f3d56"/>
        <path id="Path_92" data-name="Path 92" d="M769.989,327.106a15.278,15.278,0,0,0-6.464,1.969c-1.317.752-2.668,1.763-4.172,1.581-.888-.1-1.763-.588-2.627-.353a5.152,5.152,0,0,0-1.346.8,1.522,1.522,0,0,1-1.481.235l-.588,8.134a29.816,29.816,0,0,0,.3,9.262c.382,1.54,1.222,2.938,1.316,4.5s-.047,3.168.065,4.748c.106,1.463.429,2.9.511,4.366a27.783,27.783,0,0,1-1.175,8.186c-.993,3.961-1.593,8.01-3.526,11.595a6.84,6.84,0,0,0-1.175,3.132,1.6,1.6,0,0,0,.035.411c-.588.323-1.134.629-1.634.946a6.264,6.264,0,0,0-2.768,2.78c-.37,1.017-.2,2.18-.647,3.162s-1.469,1.681-1.693,2.739c-.159.77.147,1.581,0,2.351a10.021,10.021,0,0,0-.323,1.216,2.552,2.552,0,0,0,1.428,2.074,11.5,11.5,0,0,0,3.526,1.551l3.508-13.928h0a112.294,112.294,0,0,0,7.951-18.494,39.768,39.768,0,0,1,2.3-6.088,28.614,28.614,0,0,0,1.763-3.456,26.023,26.023,0,0,0,.846-4.648,32.519,32.519,0,0,1,1.381-5.366,23.023,23.023,0,0,0,1.5-5.747c.194-2.833-.835-5.824.259-8.445a11.228,11.228,0,0,1,1.792-2.7c1.516-1.857,2.9-3.8,4.413-5.659A4.077,4.077,0,0,0,769.989,327.106Z" transform="translate(-322.632 -207.585)" fill="#3f3d56"/>
        <g id="Group_77" data-name="Group 77" transform="translate(447.017 87.017)" opacity="0.1">
          <path id="Path_93" data-name="Path 93" d="M816.817,271.81l-.735.053-.082.059A4.333,4.333,0,0,0,816.817,271.81Z" transform="translate(-799.916 -271.81)"/>
          <path id="Path_94" data-name="Path 94" d="M818.978,289.9a15.839,15.839,0,0,1-.752,3.432,15.716,15.716,0,0,0-.588,2.069c-.118.682-.129,1.375-.235,2.057a6.7,6.7,0,0,1-2.7,4.449,1.177,1.177,0,0,1-.729.264c-.458-.053-.74-.588-.911-1.07-.934-2.7-.711-5.994-2.433-8.145a8.9,8.9,0,0,0-2.786-2.074,3.59,3.59,0,0,0-1.422-.535,3.743,3.743,0,0,0-2.057.752,12.8,12.8,0,0,1-4.067,1.8,5,5,0,0,1-4.2-.9c-.811-.67-1.4-1.675-2.3-2.2a17.729,17.729,0,0,0-2.727-.852,4.014,4.014,0,0,1-2.292-2.621,1.7,1.7,0,0,1-.047-.223,4.114,4.114,0,0,0,.047,1.986,4.013,4.013,0,0,0,2.292,2.621,19.8,19.8,0,0,1,2.727.852,22.223,22.223,0,0,1,2.3,2.2,5,5,0,0,0,4.2.905,12.807,12.807,0,0,0,4.067-1.8,3.743,3.743,0,0,1,2.057-.752,3.591,3.591,0,0,1,1.422.535,8.9,8.9,0,0,1,2.745,2.092c1.722,2.151,1.5,5.448,2.433,8.145.17.488.452,1.017.911,1.07a1.176,1.176,0,0,0,.77-.282,6.7,6.7,0,0,0,2.7-4.466c.106-.682.118-1.375.235-2.057a15.713,15.713,0,0,1,.588-2.069,13.226,13.226,0,0,0,.782-4.942C819,290.067,818.99,289.985,818.978,289.9Z" transform="translate(-788.631 -277.702)"/>
        </g>
        <rect id="Rectangle_34" data-name="Rectangle 34" width="110.877" height="6.758" transform="translate(274.41 328.165)" opacity="0.1"/>
        <path id="Path_101" data-name="Path 101" d="M466.26,372.81H476.2v9.99h-9.062Q466.607,377.864,466.26,372.81Z" transform="translate(-208.693 -226.437)" opacity="0.1"/>
        <path id="Path_102" data-name="Path 102" d="M524.649,518.833l-3.032,9.52q-4.084-1.3-7.875-2.8a105.288,105.288,0,0,1-10.972-16.29,111.064,111.064,0,0,0,21.879,9.573Z" transform="translate(-223.747 -282.699)" opacity="0.1"/>
        <path id="Path_103" data-name="Path 103" d="M638.51,518.837a111.314,111.314,0,0,0,21.873-9.567,105.675,105.675,0,0,1-10.972,16.3q-3.79,1.5-7.869,2.8Z" transform="translate(-279.715 -282.703)" opacity="0.1"/>
        <path id="Path_104" data-name="Path 104" d="M705.268,372.81q-.347,5.054-.882,9.99H695.33v-9.99Z" transform="translate(-303.143 -226.437)" opacity="0.1"/>
        <path id="Path_105" data-name="Path 105" d="M591.411,569.627a37.992,37.992,0,0,1-14.451,0,54.123,54.123,0,0,0,.37-5.477h13.71A54.105,54.105,0,0,0,591.411,569.627Z" transform="translate(-254.337 -305.331)" opacity="0.1"/>
        <path id="Path_109" data-name="Path 109" d="M308.6,398.373c-1.358-.453-9.35-6.776-9.955-9.638s4.225-29.525,4.225-29.525a10.861,10.861,0,0,1-1.175-.088v-.429l.993-35.026s4.073-23.507-3.62-22.138-2.868,22.138-2.868,22.138-.876,10.543-1.493,13.7c-.588,3.05-3.279,15.473-1.446,19.335a4.2,4.2,0,0,0,.223.4h0s.306,13.252-3.015,15.062c-3.168,1.722-4.484,10.39-4.6,11.166l-.17-.07h0a9.21,9.21,0,0,1-2.451-2.239c-.071-.088-.123-.182-.188-.276a12.943,12.943,0,0,0-3.984-20.21,8.345,8.345,0,0,0-.782-3.244c-1.528-3.268-9.99-7.54-16-7.64-2.774-.082-5.048.705-5.877,2.874a16.582,16.582,0,0,0-.47,3.491,8.878,8.878,0,0,1-3.8,5.653,23.834,23.834,0,0,0-2.533-2.439c-1.963-1.5-5.877-6.464-5.877-6.464s-12.218-12.653-13.123-16.12S217.5,312.36,214.788,315.986s9.35,19.428,9.35,19.428,2.292,5.742,4.055,7.681,15.28,21.568,15.28,21.568l.646,1.34c-2.856,1.5-5.465,3.42-6.388,6.406-1.352,4.4,1.6,8.815,3.649,12.929,3.984,8.028,4.554,18.265-.588,25.6-4.607,6.476-12.6,9.556-20.081,12.247a19.764,19.764,0,0,0,12.694,4.214c-1.728,5.007-7.851,6.664-13.07,7.593,2.739,2.633,6.658,3.591,10.419,4.172a31.22,31.22,0,0,0,5.577.441h.458l.458-.035a15.978,15.978,0,0,0,1.9-.241,9.974,9.974,0,0,0,6.741-4.431c1.175-2.051,1.587-4.848,3.72-5.877a4.755,4.755,0,0,1,1.763-.417h1.146l8.892.088h1.134c2.509-.059,5.189-.494,6.464-2.568a7.122,7.122,0,0,0,.805-3.262c.188-2.815,0-5.712.076-8.551.758,5.166,1.551,13.217-.335,16.191a27.622,27.622,0,0,1-5.512,5.977,10.584,10.584,0,0,0-1.457,1.493c-.288.206-.458.317-.458.317l-.182.547a10.344,10.344,0,0,0-1.434,3.326,2.308,2.308,0,0,0-.112.946c.206.417-1.469,2.139-.981,2.862-4.184,4.907-4.978,12.341-4.978,12.341l-7.64,11.6c-3.926,10.314-9.8,11.372-9.8,11.372s-13.8-9.262-14.181-9.714-5.653-2.715-5.653-2.715a5.982,5.982,0,0,0-2.715-2.48c-1.81-.752-1.963-3.526-1.963-3.526-.223-6.553-4.073-7.052-4.073-7.052a12.506,12.506,0,0,0-7.293,1.3l-.552.041c-2.668.217-5.877.458-9.4.693-9.808.646-12.141,7-12.141,7a1.955,1.955,0,0,0,.376,2.827c1.581,1.469,11.7,0,12.13-.035a6.573,6.573,0,0,1-2.3-.159c1.593-.059,3.785-.117,5.653-.117h.452a24.461,24.461,0,0,0-.17,2.985c0,1.881,5.2,3.085,5.2,3.085l15.838,14.1s9.955,4.449,16.29,10.849,11.936.876,11.936.876c6.705-1.657,26-24.982,26.016-25.006h0c0,.682.406,23.366,1.175,27.921h0a3.02,3.02,0,0,0,.17.676c.905,1.957-.306,7.3-.829,9.562a26.564,26.564,0,0,0-.382,5.724s-7.234,27.621-6.635,30.048-3.92,13.7-3.92,13.7v9.4l.787-.041a5.1,5.1,0,0,0-.282.47l-.053.1a33.447,33.447,0,0,0,8.069.752c3.244-.3,8.815,2.5,8.815,2.5s1.886.893,7.693,1.269,5.806-2.562,5.806-2.562c-.664-4-9.838-5.342-10.12-5.383-.74-.464-1.434-.97-2-1.4l-.118-.094a2.488,2.488,0,0,0,.1-.27c.981-4-4.449-5.73-4.449-5.73V559.9c3.526-1.81,4.225-14.233,4.225-14.233s5.289-15.362,6.03-17.924,0-6.4,0-6.4l.529-3.315a16.3,16.3,0,0,0,1.134-2.709,6.693,6.693,0,0,1,1.281-3.162c.829-.981-.905-3.315-.905-3.315l1.51-3.914v-4.3l3.526-15.585s3.7-18.153,2.415-24.095,1.51-8.962,1.51-8.962a7.415,7.415,0,0,1-.776.353,22.446,22.446,0,0,0,.911-2.5l7.934.981v.117h2.862s-.905-11.166-.905-15.667,3.05-20.657,3.05-20.657S309.956,398.825,308.6,398.373Zm-35.22-13.035c0,.441-.041.9-.07,1.369l-.159.241-.294-.247-.358.558-.106.053c-.776-.4-1.175-2.686-1.734-2.192l-.076.065c-.123-.141-.247-.182-.376-.065l-.118.1V384.7a13.227,13.227,0,0,0,3.291.417C273.385,385.191,273.379,385.268,273.379,385.338Zm26.387,52h.17l-.282.74C299.689,437.829,299.725,437.589,299.766,437.336ZM270.8,570.6l-1.081-.27.588-.1.547.358.065.047Zm11.048-1.581c-.359-.188-.723-.405-1.075-.629C280.89,568.458,281.354,568.7,281.848,569.023Z" transform="translate(-90.077 -197.023)" fill="url(#linear-gradient-2)"/>
        <path id="Path_110" data-name="Path 110" d="M354.953,390.03l-7.117,18.547h1.728l-6.694,5.336,12.083,1.5Z" transform="translate(-141.361 -160.819)" fill="#f86d70"/>
        <path id="Path_111" data-name="Path 111" d="M354.953,390.03l-7.117,18.547-1.793-.482-3.173,5.818,12.083,1.5Z" transform="translate(-141.361 -160.819)" opacity="0.1"/>
        <path id="Path_112" data-name="Path 112" d="M344.44,386.573H355.6l4.1-33.7H344.44Z" transform="translate(-142.009 -145.497)" fill="#f86d70"/>
        <path id="Path_113" data-name="Path 113" d="M344.44,386.573H355.6l4.1-33.7H344.44Z" transform="translate(-142.009 -145.497)" opacity="0.1"/>
        <path id="Path_114" data-name="Path 114" d="M334.553,464.334l2.409-.406,5.536-.94s16.625-3.749,20.057-4.055a21.427,21.427,0,0,0,6.018-1.716c.9-.388,1.469-.682,1.469-.682L364.054,445.6l-9.291-6.888s-5.877-1.252-8.363-4.672a5.507,5.507,0,0,1-.77-5.219c1.516-4.7-9.056,4.5-9.056,4.5s.1,2.2,0,5.013c0,.552-.053,1.128-.094,1.716a11.572,11.572,0,0,1-.094,1.175c-.259,2.791-.787,5.665-1.834,7.381C332,452.8,334.553,464.334,334.553,464.334Z" transform="translate(-153.918 -248.98)" fill="#fbbebe"/>
        <path id="Path_115" data-name="Path 115" d="M338.79,438.729h.235c.423,0,.764-.9,1.175-.94,3.309-.317,6.329-1.011,8.427-3.356a5.512,5.512,0,0,1-.77-5.213c1.516-4.7-9.056,4.49-9.056,4.49S338.913,435.92,338.79,438.729Z" transform="translate(-156.134 -249.145)" opacity="0.1"/>
        <path id="Path_116" data-name="Path 116" d="M316.89,414.624a12.876,12.876,0,0,0,12.882,12.882,8.973,8.973,0,0,0,1.258-.059,12.882,12.882,0,1,0-14.139-12.823Z" transform="translate(-147.104 -238.368)" fill="#fbbebe"/>
        <path id="Path_117" data-name="Path 117" d="M285.017,388.379a15.852,15.852,0,0,0-.464,3.473c-.629,4.178-4.878,6.682-8.721,8.433s-8.18,3.826-9.4,7.863c-1.34,4.366,1.587,8.745,3.62,12.841,3.961,7.981,4.525,18.159-.588,25.458-4.543,6.464-12.459,9.532-19.911,12.224a19.629,19.629,0,0,0,12.606,4.2c-1.71,4.978-7.793,6.629-12.976,7.546,2.721,2.621,6.617,3.573,10.349,4.149a23.469,23.469,0,0,0,8.228.153,9.884,9.884,0,0,0,6.688-4.408c1.175-2.039,1.575-4.819,3.7-5.847a6.686,6.686,0,0,1,3.015-.441l8.815.094c2.744,0,5.994-.212,7.411-2.556a7.052,7.052,0,0,0,.8-3.244c.382-5.783-.729-11.895,1.651-17.172.717-1.593-3.885-4.114-3.4-5.8a54.18,54.18,0,0,0,2.057-16.4c0-4.672,3.038-8.7,5.548-12.641s4.607-8.921,2.627-13.152C304.428,388.426,287.655,381.568,285.017,388.379Z" transform="translate(-119.186 -231.675)" fill="#3f3d56"/>
        <path id="Path_118" data-name="Path 118" d="M330.13,754.455l2.245,1.487.347.229.065.041,2.662,1.763,6.218,1.046,5.465-.376s1.575-3.291-.9-3.215a5.145,5.145,0,0,1-2.257-.652l-.341-.17h0c-.359-.188-.717-.4-1.07-.623h0c-.734-.464-1.428-.97-1.986-1.4-.823-.635-1.369-1.117-1.369-1.117Z" transform="translate(-152.563 -382.568)" fill="#fbbebe"/>
        <path id="Path_119" data-name="Path 119" d="M334,758.264l.347.229.065.041,2.662,1.763,6.218,1.046,5.465-.376s1.575-3.291-.9-3.215a5.147,5.147,0,0,1-2.257-.652c.435.341.8.711.835,1.022.1.84-4.043,2.351-4.043,2.351l-5.842-1.546s-.993-.282-2.351-.635l-.129-.035Z" transform="translate(-154.159 -384.889)" opacity="0.1"/>
        <path id="Path_120" data-name="Path 120" d="M317,759.12a33.081,33.081,0,0,0,8.01.746c3.22-.3,8.768,2.474,8.768,2.474s1.875.881,7.64,1.258,5.765-2.55,5.765-2.55c-.658-3.979-9.767-5.289-10.049-5.348h0a11.213,11.213,0,0,1,1.07.623h0c.646.423,1.346.976,1.4,1.422.1.834-4.043,2.351-4.043,2.351l-5.841-1.54s-.993-.288-2.351-.641h-.129a50.076,50.076,0,0,0-6.124-1.263A4.251,4.251,0,0,0,317.047,759,.7.7,0,0,0,317,759.12Z" transform="translate(-147.149 -384.312)" fill="#3f3d56"/>
        <path id="Path_121" data-name="Path 121" d="M188.54,576.977l2.545,1.951s.74-.035,1.845-.071h.353c1.581-.059,3.761-.117,5.612-.117a17.832,17.832,0,0,1,3.579.2c1.269.447,3.526-7.264,3.526-7.264l-2.551-.588-.846-.2-.588-.141-2.075-.488-6.288.717-4.419,2.844Z" transform="translate(-94.182 -307.851)" fill="#fbbebe"/>
        <path id="Path_122" data-name="Path 122" d="M188.54,576.977l2.545,1.951s.74-.035,1.845-.071a2.227,2.227,0,0,1-1.175-1.052c-1.645-4.566,6.517-6.517,6.517-6.517l3.8-.165.74-.035h.588l-.846-.2-.588-.141-2.075-.488-6.288.717-4.419,2.844Z" transform="translate(-94.182 -307.851)" opacity="0.1"/>
        <path id="Path_123" data-name="Path 123" d="M179.429,577.4c1.54,1.422,11.624,0,12.047-.035a6.345,6.345,0,0,1-2.286-.159,2.522,2.522,0,0,1-1.763-1.263c-1.645-4.572,6.517-6.518,6.517-6.518l3.8-.164.735-.035,9.244-.4.447-2.545s-3,.282-7.716.658c-2.65.217-5.877.458-9.362.688-9.738.646-12.053,6.964-12.053,6.964A1.953,1.953,0,0,0,179.429,577.4Z" transform="translate(-90.09 -306.21)" fill="#3f3d56"/>
        <path id="Path_124" data-name="Path 124" d="M372.009,358.946a2.6,2.6,0,0,0,.223.4l2.245,3.291,5.842.588.065-2.315.982-34.837s4.043-23.366-3.6-22.02-2.844,22.02-2.844,22.02-.87,10.484-1.481,13.634C372.85,342.749,370.188,355.126,372.009,358.946Z" transform="translate(-169.572 -198.063)" fill="#fbbebe"/>
        <path id="Path_125" data-name="Path 125" d="M350.14,543.091l1.663,2.844,3.72,6.365s6.747,2.474,8.474.588c.946-1.028,1.969-4.619,2.686-7.64.588-2.445.981-4.508.981-4.508Z" transform="translate(-160.814 -295.679)" fill="#fbbebe"/>
        <path id="Path_126" data-name="Path 126" d="M350.14,543.111l1.663,2.844a1.955,1.955,0,0,0,.282-.3c1.881-2.4,10.161-.511,14.6-.359.588-2.445.981-4.508.981-4.508Z" transform="translate(-160.814 -295.699)" opacity="0.1"/>
        <path id="Path_127" data-name="Path 127" d="M206.16,577.087a17.823,17.823,0,0,1,3.579.2c1.269.447,3.526-7.264,3.526-7.264l-3.4-.8,9.244-.4.447-2.545s-3,.282-7.716.658a9.7,9.7,0,0,0-2.568,2.145l-.141.176A15.4,15.4,0,0,0,206.16,577.087Z" transform="translate(-101.447 -306.21)" opacity="0.1"/>
        <path id="Path_128" data-name="Path 128" d="M330.13,754.439l2.592,1.716c3.867-.7,7.4-1.8,7.816-3.526a.58.58,0,0,0,0-.082c-.823-.635-1.369-1.116-1.369-1.116Z" transform="translate(-152.563 -382.551)" opacity="0.1"/>
        <path id="Path_129" data-name="Path 129" d="M317.09,759.672a89.685,89.685,0,0,0,10.19-1.093,50.08,50.08,0,0,0-6.129-1.275A4.227,4.227,0,0,0,317.09,759.672Z" transform="translate(-147.186 -384.963)" opacity="0.1"/>
        <path id="Path_130" data-name="Path 130" d="M206.64,569.519c0,1.875,5.166,3.074,5.166,3.074l15.732,14s9.885,4.419,16.173,10.784,11.836.9,11.836.9c6.664-1.646,25.858-24.865,25.858-24.865s.447,26.516,1.346,28.461-.3,7.264-.823,9.514a26.45,26.45,0,0,0-.376,5.689s-7.187,27.486-6.588,29.883-3.9,13.634-3.9,13.634v9.362s17.6-.676,18.571-4.643-4.413-5.695-4.413-5.695v-.976c3.526-1.8,4.19-14.151,4.19-14.151s5.248-15.28,5.994-17.824,0-6.371,0-6.371l.523-3.291a16.428,16.428,0,0,0,1.122-2.7,6.663,6.663,0,0,1,1.275-3.144c.823-.976-.9-3.3-.9-3.3l1.5-3.9v-4.267l3.526-15.5s3.673-18.053,2.4-23.971,1.5-8.909,1.5-8.909c-6.012,3.15-9.044-3.861-10.038-6.876-.253-.776-.376-1.293-.376-1.293s-8.257-3.044-15.944-2.316a18.35,18.35,0,0,0-4.578.97c-8.539,3.073-9.885,15.8-9.885,15.8l-7.563,11.536c-3.9,10.261-9.738,11.307-9.738,11.307s-13.7-9.209-14.1-9.661a54.909,54.909,0,0,0-5.618-2.7,5.935,5.935,0,0,0-2.7-2.468c-1.8-.752-1.945-3.526-1.945-3.526-.223-6.517-4.043-7.052-4.043-7.052C206.564,553.946,206.64,567.651,206.64,569.519Z" transform="translate(-101.645 -295.674)" fill="#3f3d56"/>
        <rect id="Rectangle_36" data-name="Rectangle 36" width="8.086" height="25.088" transform="translate(189.326 237.227) rotate(180)" fill="#f86d70"/>
        <rect id="Rectangle_37" data-name="Rectangle 37" width="8.086" height="25.088" transform="translate(189.326 237.227) rotate(180)" opacity="0.1"/>
        <path id="Path_131" data-name="Path 131" d="M372.439,397.41a.365.365,0,0,0,0,.053,2.612,2.612,0,0,0,.223.4l2.245,3.291,5.842.588.065-2.315C378.992,399.285,374.843,398.785,372.439,397.41Z" transform="translate(-170.008 -236.581)" opacity="0.1"/>
        <path id="Path_132" data-name="Path 132" d="M367.515,398.18s.3,13.176-3,14.974-4.578,11.166-4.578,11.166,9.991,6.57,12.218,9.462,7.34,9.779,6.288,11.424,2.55,9.138,2.55,9.138-6.594,13.481-5.1,18.577,1.645,18.571,1.645,18.571h2.85s-.9-11.084-.9-15.579,2.991-20.522,2.991-20.522,1.352-15.726,0-16.173-9.285-6.741-9.885-9.591,4.2-29.384,4.2-29.384S370.659,399.978,367.515,398.18Z" transform="translate(-164.854 -236.898)" fill="#f86d70"/>
        <path id="Path_133" data-name="Path 133" d="M336.12,464.956a12.82,12.82,0,0,0,1.957,5.136l5.536-.94s16.625-3.749,20.057-4.055a21.433,21.433,0,0,0,6.018-1.716,26.539,26.539,0,0,0-7.434-12.194l-2.11-1.957a35.346,35.346,0,0,0-10.637-6.8c.247.206,17.689,15.1,13.869,18.018s-14.1-4.19-14.1-4.19l-11.695-10.049-.423-.364-.676,1.052a9.81,9.81,0,0,1,1,.482,17.207,17.207,0,0,1,8.227,10.225C348.114,465.684,336.12,464.956,336.12,464.956Z" transform="translate(-155.033 -255.143)" opacity="0.1"/>
        <path id="Path_134" data-name="Path 134" d="M330,542.937s11.084,6.141,13.775,2.7c.588-.758,1.828-1.087,3.373-1.175-.253-.776-.376-1.293-.376-1.293s-8.257-3.044-15.944-2.315C330.323,542.12,330,542.937,330,542.937Z" transform="translate(-152.51 -295.678)" fill="#444053"/>
        <path id="Path_135" data-name="Path 135" d="M335.1,445.868l12.118,10.425s10.243,7.134,14.1,4.19-13.875-18.024-13.875-18.024h0a35.852,35.852,0,0,1,10.631,6.782l2.11,1.957c5.548,5.142,6.8,5.142,6.987,12.7.047,1.863-.588,4.537-1.075,5.019-1.8,1.763-3.056,14.568-2.78,16.067s-3.35,14.433-2.174,18.03-14.692-1.8-17.378,1.651-13.769-2.7-13.769-2.7,6.141-15.732,7.64-16.778,3.3-9.138,0-12.882a13.973,13.973,0,0,1-3.591-7.34s11.989.74,9.585-7.34a16.96,16.96,0,0,0-9.215-10.707Z" transform="translate(-152.51 -255.156)" fill="#e8e8f0"/>
        <path id="Path_136" data-name="Path 136" d="M357.375,493.38s-4.648,8.762-10.661,11.037c-.194.071-.382.135-.588.194C339.85,506.52,357.845,496.1,357.375,493.38Z" transform="translate(-158.61 -276.151)" opacity="0.1"/>
        <path id="Path_137" data-name="Path 137" d="M248.781,347.631s2.245,5.695,4.043,7.64,15.127,21.421,15.127,21.421l1.128,2.351.97,2,8.539-.9.588-3.444-.329-.4a40.344,40.344,0,0,0-4.766-5c-1.945-1.493-5.842-6.435-5.842-6.435s-12.13-12.588-13.029-16.032-13.035-24.095-15.726-20.522S248.781,347.631,248.781,347.631Z" transform="translate(-115.025 -207.923)" fill="#fbbebe"/>
        <g id="Group_78" data-name="Group 78" transform="translate(143.511 153.843)" opacity="0.1">
          <path id="Path_138" data-name="Path 138" d="M287.2,519.082a6.7,6.7,0,0,0-3.015.435c-2.116,1.029-2.515,3.808-3.691,5.847a9.883,9.883,0,0,1-6.694,4.408,15.009,15.009,0,0,1-1.622.223,18.422,18.422,0,0,0,5.148-.223,9.883,9.883,0,0,0,6.694-4.408c1.175-2.039,1.575-4.819,3.691-5.847a4.7,4.7,0,0,1,1.763-.411Z" transform="translate(-272.18 -440.581)"/>
          <path id="Path_139" data-name="Path 139" d="M325.846,418.942c0-4.672,3.038-8.7,5.542-12.641s4.607-8.921,2.627-13.152c-1.692-3.614-11.895-8.463-17.783-7.5,5.765.746,12.87,4.543,14.257,7.5,1.98,4.231-.123,9.209-2.627,13.152s-5.554,7.969-5.542,12.641a54.862,54.862,0,0,1-2.063,16.4c-.476,1.675,4.114,4.208,3.409,5.794-2.386,5.289-1.269,11.389-1.651,17.172a7.139,7.139,0,0,1-.805,3.244c-1.175,1.934-3.585,2.433-5.93,2.539h2.051c2.739,0,5.988-.211,7.4-2.556a7.139,7.139,0,0,0,.805-3.244c.382-5.783-.735-11.889,1.651-17.172.717-1.587-3.885-4.114-3.408-5.794A54.209,54.209,0,0,0,325.846,418.942Z" transform="translate(-289.951 -385.521)"/>
        </g>
        <path id="Path_140" data-name="Path 140" d="M290.12,412.979l.97,2,8.539-.9.588-3.444-.329-.4C298.976,410.687,292.153,413.972,290.12,412.979Z" transform="translate(-136.066 -241.871)" opacity="0.1"/>
        <path id="Path_141" data-name="Path 141" d="M321.991,435.785s-2.1-3.291-3.3-2.4-1.663-2.7-2.351-2.1-2.692,2.268-3.526-.065c-.652-1.857-7.751-13.6-10.631-18.33-.741-1.222-1.2-1.975-1.2-1.975s-8.086,4.043-10.032,2.7v2.844l1.646.153,8.815,16.455s2.774,4.413,2.586,5.953,3.555,8.28,4.155,8.727,7.052,7.94,7.052,7.94,3.3,16.179.447,20.675a30.673,30.673,0,0,1-7.787,7.787s-1.487,4.343-1.269,4.8-1.728,2.4-.829,3,2.1,4.79,2.1,4.79,4.2-6.741,6.464-7.787,5.172-14.833,5.172-14.833.829-8.122.893-13.364S320.193,435.785,321.991,435.785Z" transform="translate(-136.408 -242.151)" opacity="0.1"/>
        <path id="Path_142" data-name="Path 142" d="M321.221,435.785s-2.092-3.291-3.291-2.4-1.669-2.7-2.351-2.1-2.686,2.268-3.526-.065c-.658-1.857-7.757-13.6-10.631-18.33l-1.2-1.975s-8.086,4.043-10.038,2.7v2.844l1.651.153,8.815,16.455s2.78,4.413,2.586,5.953,3.526,8.28,4.155,8.727,7.052,7.94,7.052,7.94,3.3,16.179.452,20.675a27.55,27.55,0,0,1-5.424,6.006,10.483,10.483,0,0,0-3.526,5.654,2.233,2.233,0,0,0-.106.94c.217.447-1.728,2.4-.829,3s2.11,4.807,2.11,4.807,4.2-6.741,6.465-7.787,5.177-14.833,5.177-14.833.823-8.122.893-13.364S319.458,435.785,321.221,435.785Z" transform="translate(-136.091 -242.151)" fill="#f86d70"/>
        <path id="Path_143" data-name="Path 143" d="M307.54,569.21s6.294,1.175,8.815,2.991-9.585-2.844-9.585-2.844Z" transform="translate(-142.931 -307.418)" opacity="0.1"/>
        <path id="Path_144" data-name="Path 144" d="M333.83,596.35s6.564,5.471,5.389,10.414-4.208,17.378-4.208,17.378Z" transform="translate(-154.089 -318.608)" opacity="0.1"/>
        <path id="Path_145" data-name="Path 145" d="M230.051,578.45s-9.25,1.011-8.651,2.21,8.651-1.1,8.651-1.1Z" transform="translate(-107.72 -311.227)" opacity="0.1"/>
        <path id="Path_146" data-name="Path 146" d="M353.742,653.73s.588.746-2.844,0-.9-3.05-.9-3.05Z" transform="translate(-160.384 -341.009)" opacity="0.1"/>
        <path id="Path_147" data-name="Path 147" d="M349.64,673.227s-4.7.746-7.223,0S349.64,673.227,349.64,673.227Z" transform="translate(-157.458 -350.17)" opacity="0.1"/>
        <path id="Path_148" data-name="Path 148" d="M330.132,742.108s-.823-.9-4.942.746-5.765,1.722-6.964,1.175S330.132,742.108,330.132,742.108Z" transform="translate(-147.623 -378.606)" opacity="0.1"/>
        <path id="Path_149" data-name="Path 149" d="M342.221,576.28l-5.842,8.128S339.524,577.291,342.221,576.28Z" transform="translate(-155.14 -310.333)" opacity="0.1"/>
        <path id="Path_150" data-name="Path 150" d="M321.034,449.15s-.253,2.7-4.02,3.749-4.484,1.9-4.484,1.9" transform="translate(-145.306 -257.914)" opacity="0.1"/>
        <path id="Path_151" data-name="Path 151" d="M303.211,415.88s-4.972,3.526-10.161,2.78" transform="translate(-137.274 -244.196)" opacity="0.1"/>
        <path id="Path_152" data-name="Path 152" d="M316.78,542.193s1.452.911,4.937-3.073" transform="translate(-147.059 -295.011)" opacity="0.1"/>
        <path id="Path_153" data-name="Path 153" d="M375.278,469.091a2.553,2.553,0,0,0-.84-1.975l-.976-1.175a4.537,4.537,0,0,0-.641-.658c-.588-.452-1.34-.588-1.951-.993" transform="translate(-169.361 -264.157)" opacity="0.1"/>
        <path id="Path_154" data-name="Path 154" d="M884.325,123.8s-49.477-2.985-43.659,31.688c0,0-1.175,6.129,4.4,8.909,0,0,.088-2.568,5.078-1.693a23.212,23.212,0,0,0,5.377.259,11.2,11.2,0,0,0,6.57-2.715h0S876,154.505,881.4,131.774c0,0,4-4.96,3.843-6.235l-8.351,3.567s2.856,6.024.588,11.031c0,0-.27-10.813-1.875-10.578-.323.053-4.337,2.086-4.337,2.086s4.907,10.49,1.2,18.118c0,0,1.4-12.929-2.739-17.36l-5.877,3.432s5.736,10.837,1.845,19.681c0,0,1-13.564-3.085-18.847l-5.324,4.155s5.389,10.684,2.1,18.018c0,0-.429-15.791-3.256-16.984,0,0-4.66,4.114-5.371,5.794,0,0,3.691,7.757,1.4,11.848,0,0-1.4-10.519-2.556-10.578,0,0-4.643,6.97-5.125,11.754,0,0,.2-7.105,4-12.412,0,0-4.49.77-7.111,3.679,0,0,.723-4.925,8.257-5.354,0,0,3.838-5.289,4.86-5.612,0,0-7.487-.623-12.03,1.387,0,0,4-4.649,13.4-2.533l5.26-4.3s-9.861-1.346-14.045.141c0,0,4.813-4.114,15.462-1.117l5.724-3.42s-8.41-1.81-13.417-1.175c0,0,5.289-2.85,15.1.241l4.114-1.839s-6.159-1.211-7.963-1.4-1.9-.688-1.9-.688a21.362,21.362,0,0,1,11.571,1.287S884.478,124.351,884.325,123.8Z" transform="translate(-362.872 -123.74)" fill="#6c63ff" opacity="0.1"/>
        <path id="Path_155" data-name="Path 155" d="M797.467,138.839s-22.332-1.352-19.716,14.316a3.831,3.831,0,0,0,1.98,4.031s.041-1.175,2.3-.77a10.288,10.288,0,0,0,2.427.118,5.036,5.036,0,0,0,2.968-1.228h0s6.288-2.592,8.733-12.864c0,0,1.8-2.245,1.734-2.821l-3.773,1.61s1.293,2.727.276,4.989c0,0-.123-4.889-.846-4.772-.147,0-1.963.94-1.963.94s2.222,4.743.547,8.192c0,0,.635-5.842-1.24-7.845l-2.656,1.551s2.6,4.9.835,8.892c0,0,.453-6.129-1.393-8.515l-2.4,1.9s2.433,4.831.952,8.139c0,0-.194-7.134-1.475-7.669a14.733,14.733,0,0,0-2.427,2.621s1.669,3.526.635,5.348c0,0-.635-4.754-1.175-4.772,0,0-2.092,3.15-2.315,5.289a11.49,11.49,0,0,1,1.81-5.612,6.324,6.324,0,0,0-3.215,1.663s.329-2.221,3.732-2.421a16.061,16.061,0,0,1,2.2-2.533,13.781,13.781,0,0,0-5.436.629s1.8-2.1,6.059-1.175l2.351-1.939s-4.455-.588-6.347.065c0,0,2.174-1.857,6.988-.505l2.586-1.546a23.238,23.238,0,0,0-6.065-.523s2.392-1.293,6.823.106l1.851-.829s-2.786-.552-3.6-.635-.858-.311-.858-.311a9.633,9.633,0,0,1,5.23.588S797.538,139.086,797.467,138.839Z" transform="translate(-337.039 -129.954)" fill="#6c63ff" opacity="0.1"/>
        <ellipse id="Ellipse_18" data-name="Ellipse 18" cx="23.63" cy="3.996" rx="23.63" ry="3.996" transform="translate(514.805 374.444)" fill="#6c63ff"/>
        <path id="Path_156" data-name="Path 156" d="M945.488,748.938a6.843,6.843,0,0,0,2.251-3.4,3.035,3.035,0,0,0-1.575-3.461c-1.446-.552-2.991.452-4.161,1.463s-2.515,2.169-4.043,1.951a6.171,6.171,0,0,0,1.9-5.765,2.423,2.423,0,0,0-.529-1.175c-.805-.858-2.257-.494-3.22.182-3.056,2.151-3.908,6.306-3.926,10.037a18.869,18.869,0,0,1-.053-4.114c-.006-1.363-.388-2.938-1.557-3.661a4.651,4.651,0,0,0-2.351-.552,4.881,4.881,0,0,0-3.838,1.093c-1.175,1.246-.864,3.338.147,4.7a14.958,14.958,0,0,0,3.978,3.185,8.813,8.813,0,0,1,2.838,2.709,2.428,2.428,0,0,1,.211.488h8.615a23.954,23.954,0,0,0,5.307-3.679Z" transform="translate(-397.279 -377.033)" fill="#6c63ff"/>
      </g>
    </g>
    <g id="Group_82" data-name="Group 82" transform="translate(387.466 1879.191)">
      <g data-type="innerShadowGroup">
        <circle id="Ellipse_19-11" data-name="Ellipse 19" cx="39.343" cy="39.343" r="39.343" fill="#ffd717"/>
        <g transform="matrix(1, 0, 0, 1, -243.78, -75.12)" filter="url(#Ellipse_19)">
          <circle id="Ellipse_19-12" data-name="Ellipse 19" cx="39.343" cy="39.343" r="39.343" transform="translate(243.78 75.12)" fill="#fff"/>
        </g>
        <circle id="Ellipse_19-13" data-name="Ellipse 19" cx="39.343" cy="39.343" r="39.343" fill="none" stroke="#ffc417" stroke-width="11"/>
      </g>
      <path id="star" d="M38.669,16.394a.856.856,0,0,0-.81-.575H25.785L21.671,4.176a.857.857,0,0,0-1.617,0L15.939,15.819H3.867a.857.857,0,0,0-.532,1.529l9.426,7.463L8.542,36.751a.859.859,0,0,0,1.25,1.022l11.068-6.641,11.068,6.641a.859.859,0,0,0,1.25-1.022L28.961,24.812l9.43-7.463a.857.857,0,0,0,.277-.954Z" transform="translate(18.264 14.562)" fill="#fff"/>
    </g>
    <g id="Group_83" data-name="Group 83" transform="translate(564.804 1879.191)">
      <g data-type="innerShadowGroup">
        <circle id="Ellipse_19-14" data-name="Ellipse 19" cx="22.367" cy="22.367" r="22.367" transform="translate(0)" fill="#ffd717"/>
        <g transform="matrix(1, 0, 0, 1, -421.12, -75.12)" filter="url(#Ellipse_19-2)">
          <circle id="Ellipse_19-15" data-name="Ellipse 19" cx="22.367" cy="22.367" r="22.367" transform="translate(421.12 75.12)" fill="#fff"/>
        </g>
        <circle id="Ellipse_19-16" data-name="Ellipse 19" cx="22.367" cy="22.367" r="22.367" transform="translate(0)" fill="none" stroke="#ffc417" stroke-width="11"/>
      </g>
      <path id="star-2" data-name="star" d="M23.282,10.875a.487.487,0,0,0-.46-.327H15.957l-2.339-6.62a.487.487,0,0,0-.919,0l-2.339,6.62H3.5a.487.487,0,0,0-.3.869l5.359,4.243-2.4,6.787a.488.488,0,0,0,.711.581l6.292-3.775,6.292,3.775a.488.488,0,0,0,.711-.581l-2.4-6.787,5.361-4.243a.487.487,0,0,0,.158-.542Z" transform="translate(9.085 6.724)" fill="#fff"/>
    </g>
    <g id="Group_87" data-name="Group 87" transform="translate(699.551 1986.913)">
      <g data-type="innerShadowGroup">
        <circle id="Ellipse_19-17" data-name="Ellipse 19" cx="22.367" cy="22.367" r="22.367" fill="#ffd717"/>
        <g transform="matrix(1, 0, 0, 1, -555.87, -182.84)" filter="url(#Ellipse_19-3)">
          <circle id="Ellipse_19-18" data-name="Ellipse 19" cx="22.367" cy="22.367" r="22.367" transform="translate(555.87 182.84)" fill="#fff"/>
        </g>
        <circle id="Ellipse_19-19" data-name="Ellipse 19" cx="22.367" cy="22.367" r="22.367" fill="none" stroke="#ffc417" stroke-width="11"/>
      </g>
      <path id="star-3" data-name="star" d="M23.282,10.875a.487.487,0,0,0-.46-.327H15.957l-2.339-6.62a.487.487,0,0,0-.919,0l-2.339,6.62H3.5a.487.487,0,0,0-.3.869l5.359,4.243-2.4,6.787a.488.488,0,0,0,.711.581l6.292-3.775,6.292,3.775a.488.488,0,0,0,.711-.581l-2.4-6.787,5.361-4.243a.487.487,0,0,0,.158-.542Z" transform="translate(9.085 6.724)" fill="#fff"/>
    </g>
    <g id="Group_88" data-name="Group 88" transform="translate(225.41 1964.546)" opacity="0.5">
      <g data-type="innerShadowGroup">
        <circle id="Ellipse_19-20" data-name="Ellipse 19" cx="22.367" cy="22.367" r="22.367" fill="#ffd717"/>
        <g transform="matrix(1, 0, 0, 1, -81.73, -160.47)" filter="url(#Ellipse_19-4)">
          <circle id="Ellipse_19-21" data-name="Ellipse 19" cx="22.367" cy="22.367" r="22.367" transform="translate(81.73 160.47)" fill="#fff"/>
        </g>
        <circle id="Ellipse_19-22" data-name="Ellipse 19" cx="22.367" cy="22.367" r="22.367" fill="none" stroke="#ffc417" stroke-width="11"/>
      </g>
      <path id="star-4" data-name="star" d="M23.282,10.875a.487.487,0,0,0-.46-.327H15.957l-2.339-6.62a.487.487,0,0,0-.919,0l-2.339,6.62H3.5a.487.487,0,0,0-.3.869l5.359,4.243-2.4,6.787a.488.488,0,0,0,.711.581l6.292-3.775,6.292,3.775a.488.488,0,0,0,.711-.581l-2.4-6.787,5.361-4.243a.487.487,0,0,0,.158-.542Z" transform="translate(9.085 6.724)" fill="#fff"/>
    </g>
    <g id="Group_90" data-name="Group 90" transform="translate(703.762 1837.92)" opacity="0.5">
      <g data-type="innerShadowGroup">
        <circle id="Ellipse_19-23" data-name="Ellipse 19" cx="14.172" cy="14.172" r="14.172" fill="#ffd717"/>
        <g transform="matrix(1, 0, 0, 1, -560.08, -33.84)" filter="url(#Ellipse_19-5)">
          <circle id="Ellipse_19-24" data-name="Ellipse 19" cx="14.172" cy="14.172" r="14.172" transform="translate(560.08 33.84)" fill="#fff"/>
        </g>
        <circle id="Ellipse_19-25" data-name="Ellipse 19" cx="14.172" cy="14.172" r="14.172" fill="none" stroke="#ffc417" stroke-width="11"/>
      </g>
      <path id="star-5" data-name="star" d="M15.854,8.211A.308.308,0,0,0,15.562,8H11.213L9.731,3.81a.309.309,0,0,0-.583,0L7.666,8H3.318a.309.309,0,0,0-.192.551l3.4,2.688L5,15.544a.309.309,0,0,0,.45.368L9.439,13.52l3.987,2.392a.309.309,0,0,0,.45-.368l-1.519-4.3,3.4-2.688a.309.309,0,0,0,.1-.344Z" transform="translate(4.654 2.94)" fill="#fff"/>
    </g>
    <g id="Group_91" data-name="Group 91" transform="translate(506.551 1809.576)" opacity="0.2">
      <g data-type="innerShadowGroup">
        <circle id="Ellipse_19-26" data-name="Ellipse 19" cx="9.931" cy="9.931" r="9.931" fill="#ffd717"/>
        <g transform="matrix(1, 0, 0, 1, -362.87, -5.5)" filter="url(#Ellipse_19-6)">
          <circle id="Ellipse_19-27" data-name="Ellipse 19" cx="9.931" cy="9.931" r="9.931" transform="translate(362.87 5.5)" fill="#fff"/>
        </g>
        <circle id="Ellipse_19-28" data-name="Ellipse 19" cx="9.931" cy="9.931" r="9.931" fill="none" stroke="#ffc417" stroke-width="11"/>
      </g>
      <path id="star-6" data-name="star" d="M12.01,6.832a.216.216,0,0,0-.2-.145H8.758L7.719,3.748a.216.216,0,0,0-.408,0L6.272,6.687H3.225a.216.216,0,0,0-.134.386L5.47,8.957,4.405,11.97a.217.217,0,0,0,.316.258l2.794-1.676,2.794,1.676a.217.217,0,0,0,.316-.258L9.559,8.957l2.38-1.884a.216.216,0,0,0,.07-.241Z" transform="translate(2.361 0.982)" fill="#fff"/>
    </g>
    <g id="Group_89" data-name="Group 89" transform="translate(283.52 1837.92)" opacity="0.8">
      <g data-type="innerShadowGroup">
        <circle id="Ellipse_19-29" data-name="Ellipse 19" cx="17.049" cy="17.049" r="17.049" fill="#ffd717"/>
        <g transform="matrix(1, 0, 0, 1, -139.83, -33.84)" filter="url(#Ellipse_19-7)">
          <circle id="Ellipse_19-30" data-name="Ellipse 19" cx="17.049" cy="17.049" r="17.049" transform="translate(139.83 33.84)" fill="#fff"/>
        </g>
        <circle id="Ellipse_19-31" data-name="Ellipse 19" cx="17.049" cy="17.049" r="17.049" fill="none" stroke="#ffc417" stroke-width="11"/>
      </g>
      <path id="star-7" data-name="star" d="M18.461,9.146A.371.371,0,0,0,18.11,8.9H12.879L11.1,3.851a.372.372,0,0,0-.7,0L8.612,8.9H3.38a.371.371,0,0,0-.231.663l4.085,3.234L5.406,17.968a.372.372,0,0,0,.542.443l4.8-2.878,4.8,2.878a.372.372,0,0,0,.542-.443l-1.828-5.174L18.341,9.56a.372.372,0,0,0,.12-.413Z" transform="translate(6.21 4.269)" fill="#fff"/>
    </g>
    <g id="Group_84" data-name="Group 84" transform="translate(426.497 2100.06)">
      <g data-type="innerShadowGroup">
        <circle id="Ellipse_19-32" data-name="Ellipse 19" cx="59.543" cy="59.543" r="59.543" fill="#ffd717"/>
        <g transform="matrix(1, 0, 0, 1, -282.81, -295.98)" filter="url(#Ellipse_19-8)">
          <circle id="Ellipse_19-33" data-name="Ellipse 19" cx="59.543" cy="59.543" r="59.543" transform="translate(282.81 295.98)" fill="#fff"/>
        </g>
        <circle id="Ellipse_19-34" data-name="Ellipse 19" cx="59.543" cy="59.543" r="59.543" fill="none" stroke="#ffc417" stroke-width="16"/>
      </g>
      <path id="star-8" data-name="star" d="M56.978,22.962a1.3,1.3,0,0,0-1.226-.871H37.48L31.253,4.47a1.3,1.3,0,0,0-2.448,0L22.578,22.091H4.307A1.3,1.3,0,0,0,3.5,24.405L17.767,35.7,11.383,53.77a1.3,1.3,0,0,0,1.892,1.546l16.751-10.05,16.751,10.05a1.3,1.3,0,0,0,1.892-1.546L42.287,35.7l14.271-11.3a1.3,1.3,0,0,0,.42-1.444Z" transform="translate(29.415 29.662)" fill="#fff"/>
    </g>
    <g id="Group_85" data-name="Group 85" transform="translate(476.736 1986.913)">
      <g data-type="innerShadowGroup">
        <circle id="Ellipse_19-35" data-name="Ellipse 19" cx="29.815" cy="29.815" r="29.815" fill="#ffd717"/>
        <g transform="matrix(1, 0, 0, 1, -333.05, -182.84)" filter="url(#Ellipse_19-9)">
          <circle id="Ellipse_19-36" data-name="Ellipse 19" cx="29.815" cy="29.815" r="29.815" transform="translate(333.05 182.84)" fill="#fff"/>
        </g>
        <circle id="Ellipse_19-37" data-name="Ellipse 19" cx="29.815" cy="29.815" r="29.815" fill="none" stroke="#ffc417" stroke-width="11"/>
      </g>
      <path id="star-9" data-name="star" d="M30.033,13.3a.649.649,0,0,0-.614-.436H20.27L17.151,4.037a.65.65,0,0,0-1.226,0l-3.118,8.824H3.659a.649.649,0,0,0-.4,1.159L10.4,19.676,7.2,28.724a.651.651,0,0,0,.948.774l8.388-5.032L24.926,29.5a.651.651,0,0,0,.948-.774l-3.2-9.048,7.146-5.656a.65.65,0,0,0,.21-.723Z" transform="translate(13.113 10.163)" fill="#fff"/>
    </g>
    <g id="Group_86" data-name="Group 86" transform="translate(387.466 1991.567)">
      <g data-type="innerShadowGroup">
        <circle id="Ellipse_19-38" data-name="Ellipse 19" cx="8.119" cy="8.119" r="8.119" fill="#ffd717"/>
        <g transform="matrix(1, 0, 0, 1, -243.78, -187.49)" filter="url(#Ellipse_19-10)">
          <circle id="Ellipse_19-39" data-name="Ellipse 19" cx="8.119" cy="8.119" r="8.119" transform="translate(243.78 187.49)" fill="#fff"/>
        </g>
        <circle id="Ellipse_19-40" data-name="Ellipse 19" cx="8.119" cy="8.119" r="8.119" fill="none" stroke="#ffc417" stroke-width="11"/>
      </g>
      <path id="star-10" data-name="star" d="M10.367,6.243a.177.177,0,0,0-.167-.119H7.709l-.849-2.4a.177.177,0,0,0-.334,0l-.849,2.4H3.185a.177.177,0,0,0-.11.316L5.021,7.98l-.87,2.464a.177.177,0,0,0,.258.211l2.284-1.37,2.284,1.37a.177.177,0,0,0,.258-.211L8.364,7.98,10.31,6.44a.177.177,0,0,0,.057-.2Z" transform="translate(1.381 0.145)" fill="#fff"/>
    </g>
  </g>
</svg>
