<svg xmlns="http://www.w3.org/2000/svg" width="98" height="98" viewBox="0 0 98 98">
  <g id="Group_40" data-name="Group 40" transform="translate(-173 -971)">
    <circle id="Ellipse_6" data-name="Ellipse 6" cx="49" cy="49" r="49" transform="translate(173 971)" fill="#1c105e"/>
    <g id="adaptive_responsive_design_1_" transform="translate(197 995)">
      <g id="Group_30" data-name="Group 30" transform="translate(1 2)">
        <g id="Group_29" data-name="Group 29">
          <path id="Path_6" data-name="Path 6" d="M1.792,30.5A.792.792,0,0,1,1,29.707V4.375A2.378,2.378,0,0,1,3.375,2H46.122A2.378,2.378,0,0,1,48.5,4.375V6.75a.792.792,0,0,1-1.583,0V4.375a.794.794,0,0,0-.792-.792H3.375a.794.794,0,0,0-.792.792V29.707A.792.792,0,0,1,1.792,30.5Z" transform="translate(-1 -2)" fill="#fff"/>
        </g>
        <path id="Path_7" data-name="Path 7" d="M19.5,34.208H10.792a.792.792,0,1,1,0-1.583h1.583A2.378,2.378,0,0,0,14.75,30.25V26.292a.792.792,0,0,1,1.583,0V30.25a3.94,3.94,0,0,1-.793,2.375H19.5a.792.792,0,1,1,0,1.583Z" transform="translate(4.249 11.706)" fill="#fff"/>
        <path id="Path_8" data-name="Path 8" d="M23.957,28.916H3.375A2.378,2.378,0,0,1,1,26.541v-4.75A.792.792,0,0,1,1.792,21H23.957a.792.792,0,0,1,0,1.583H2.583v3.958a.794.794,0,0,0,.792.792H23.957a.792.792,0,1,1,0,1.583Z" transform="translate(-1 9.081)" fill="#fff"/>
      </g>
      <g id="Group_35" data-name="Group 35" transform="translate(26.332 8.333)">
        <g id="Group_32" data-name="Group 32" transform="translate(6.333 3.166)">
          <g id="Group_31" data-name="Group 31">
            <path id="Path_9" data-name="Path 9" d="M21.792,9.583h7.916a.792.792,0,0,0,0-1.583H21.792a.792.792,0,1,0,0,1.583Z" transform="translate(-21 -8)" fill="#fff"/>
          </g>
        </g>
        <g id="Group_34" data-name="Group 34" transform="translate(9.499 34.831)">
          <g id="Group_33" data-name="Group 33">
            <path id="Path_10" data-name="Path 10" d="M23.792,29.583h1.583a.792.792,0,0,0,0-1.583H23.792a.792.792,0,0,0,0,1.583Z" transform="translate(-23 -28)" fill="#fff"/>
          </g>
        </g>
        <path id="Path_11" data-name="Path 11" d="M35.207,45.581H20.958A3.962,3.962,0,0,1,17,41.623V9.958A3.962,3.962,0,0,1,20.958,6H35.207a3.962,3.962,0,0,1,3.958,3.958V41.623A3.962,3.962,0,0,1,35.207,45.581Zm-14.249-38a2.378,2.378,0,0,0-2.375,2.375V41.623A2.378,2.378,0,0,0,20.958,44H35.207a2.378,2.378,0,0,0,2.375-2.375V9.958a2.378,2.378,0,0,0-2.375-2.375Z" transform="translate(-17 -6)" fill="#fff"/>
      </g>
    </g>
  </g>
</svg>
