<svg xmlns="http://www.w3.org/2000/svg" width="20.002" height="20" viewBox="0 0 20.002 20">
  <path id="instagramfour" d="M6.263,10a3.734,3.734,0,0,1,3.75-3.75A3.734,3.734,0,0,1,13.763,10a3.734,3.734,0,0,1-3.75,3.75A3.734,3.734,0,0,1,6.263,10ZM20.014,8.75V17.5a2.5,2.5,0,0,1-2.5,2.5h-15a2.407,2.407,0,0,1-1.767-.733A2.413,2.413,0,0,1,.013,17.5V2.5A2.407,2.407,0,0,1,.745.733,2.412,2.412,0,0,1,2.513,0h15a2.407,2.407,0,0,1,1.767.733A2.412,2.412,0,0,1,20.013,2.5V6.25h-5a6.4,6.4,0,0,0-2.188-1.826,6.208,6.208,0,0,0-5.626,0A6.4,6.4,0,0,0,5.012,6.25h-5v2.5H3.879A6.78,6.78,0,0,0,3.762,10a6.1,6.1,0,0,0,.84,3.135A6.246,6.246,0,0,0,6.877,15.41a6.273,6.273,0,0,0,6.27,0,6.246,6.246,0,0,0,2.275-2.275A6.1,6.1,0,0,0,16.262,10a6.78,6.78,0,0,0-.117-1.25h3.867Z" transform="translate(-0.012)" fill="#fff"/>
</svg>
