<svg xmlns="http://www.w3.org/2000/svg" width="20.046" height="20" viewBox="0 0 20.046 20">
  <path id="linkedin" d="M14.977,10.48a1.682,1.682,0,0,0-1.408-.493,2.01,2.01,0,0,0-1.784.751,3.7,3.7,0,0,0-.517,2.112V19.7a.484.484,0,0,1-.517.517H7.183a.534.534,0,0,1-.352-.141.467.467,0,0,1-.164-.376V7.03a.568.568,0,0,1,.517-.517h3.474a.473.473,0,0,1,.3.094.5.5,0,0,1,.164.281v.235a.807.807,0,0,1,.047.329,4.924,4.924,0,0,1,3.568-1.268,5.615,5.615,0,0,1,3.9,1.268,4.734,4.734,0,0,1,1.408,3.709V19.7a.471.471,0,0,1-.164.376.528.528,0,0,1-.352.141H15.867a.534.534,0,0,1-.352-.141.467.467,0,0,1-.164-.376v-7.7a2.514,2.514,0,0,0-.376-1.526ZM4.132,4.377A2.3,2.3,0,0,1,2.418,5.1,2.3,2.3,0,0,1,.7,4.377,2.408,2.408,0,0,1,0,2.64,2.336,2.336,0,0,1,.7.926a2.331,2.331,0,0,1,1.714-.7,2.331,2.331,0,0,1,1.714.7,2.336,2.336,0,0,1,.7,1.714A2.408,2.408,0,0,1,4.132,4.377Zm.61,2.652V19.705a.471.471,0,0,1-.164.376.528.528,0,0,1-.352.141H.657a.509.509,0,0,1-.376-.141.5.5,0,0,1-.141-.376V7.03a.534.534,0,0,1,.141-.352.467.467,0,0,1,.376-.164H4.226a.5.5,0,0,1,.352.164.49.49,0,0,1,.164.352Z" transform="translate(0 -0.222)" fill="#fff"/>
</svg>
