<svg xmlns="http://www.w3.org/2000/svg" width="24" height="19.999" viewBox="0 0 24 19.999">
  <path id="twitter" d="M24,5.007a6.414,6.414,0,0,1-.9,1.284,6.613,6.613,0,0,1-1.619,1.364c.018.142.032.277.041.4a14.575,14.575,0,0,1-1.03,5.579A14.688,14.688,0,0,1,14.65,20.9,15.375,15.375,0,0,1,5.5,22.572,10.514,10.514,0,0,1,0,20.445a10.247,10.247,0,0,0,7.331-2.114A5.051,5.051,0,0,1,2.676,14.88a3.117,3.117,0,0,0,1.043.053A9.639,9.639,0,0,0,4.9,14.773a5.519,5.519,0,0,1-3.344-2.6A5.592,5.592,0,0,1,.991,9.716a4.7,4.7,0,0,0,2.221.669A5.739,5.739,0,0,1,1.031,6.84a6.564,6.564,0,0,1,.6-3.2A16.836,16.836,0,0,0,7.345,7.924a11.833,11.833,0,0,0,4.481.937,5.989,5.989,0,0,1,.6-3.8,5.181,5.181,0,0,1,3.09-2.248,4.561,4.561,0,0,1,4.575,1.418,8.147,8.147,0,0,0,3.184-1.178A4.831,4.831,0,0,1,21.084,5.89,13.881,13.881,0,0,0,24,5.007Z" transform="translate(0 -2.668)" fill="#fff"/>
</svg>
