<svg xmlns="http://www.w3.org/2000/svg" width="38.773" height="37.481" viewBox="0 0 38.773 37.481">
  <g id="Group_11507" data-name="Group 11507" transform="translate(-193.408 -992.225)">
    <g id="adaptive_responsive_design_1_" transform="translate(193.408 992.225)">
      <g id="Group_30" data-name="Group 30" transform="translate(0 0)">
        <g id="Group_29" data-name="Group 29">
          <path id="Path_6" data-name="Path 6" d="M1.646,25.264A.646.646,0,0,1,1,24.618V3.939A1.941,1.941,0,0,1,2.939,2h34.9a1.941,1.941,0,0,1,1.939,1.939V5.877a.646.646,0,0,1-1.292,0V3.939a.648.648,0,0,0-.646-.646H2.939a.648.648,0,0,0-.646.646V24.618A.646.646,0,0,1,1.646,25.264Z" transform="translate(-1 -2)" fill="#fff"/>
        </g>
        <path id="Path_7" data-name="Path 7" d="M17.755,32.608H10.646a.646.646,0,0,1,0-1.292h1.292a1.941,1.941,0,0,0,1.939-1.939V26.146a.646.646,0,0,1,1.292,0v3.231a3.217,3.217,0,0,1-.648,1.939h3.232a.646.646,0,0,1,0,1.292Z" transform="translate(1.632 4.872)" fill="#fff"/>
        <path id="Path_8" data-name="Path 8" d="M19.74,27.462H2.939A1.941,1.941,0,0,1,1,25.524V21.646A.646.646,0,0,1,1.646,21H19.74a.646.646,0,0,1,0,1.292H2.292v3.231a.648.648,0,0,0,.646.646h16.8a.646.646,0,1,1,0,1.292Z" transform="translate(-1 3.556)" fill="#fff"/>
      </g>
      <g id="Group_35" data-name="Group 35" transform="translate(20.679 5.17)">
        <g id="Group_32" data-name="Group 32" transform="translate(5.17 2.585)">
          <g id="Group_31" data-name="Group 31">
            <path id="Path_9" data-name="Path 9" d="M21.646,9.292h6.462a.646.646,0,0,0,0-1.292H21.646a.646.646,0,1,0,0,1.292Z" transform="translate(-21 -8)" fill="#fff"/>
          </g>
        </g>
        <g id="Group_34" data-name="Group 34" transform="translate(7.755 28.434)">
          <g id="Group_33" data-name="Group 33">
            <path id="Path_10" data-name="Path 10" d="M23.646,29.292h1.292a.646.646,0,0,0,0-1.292H23.646a.646.646,0,0,0,0,1.292Z" transform="translate(-23 -28)" fill="#fff"/>
          </g>
        </g>
        <path id="Path_11" data-name="Path 11" d="M31.863,38.311H20.231A3.234,3.234,0,0,1,17,35.08V9.231A3.234,3.234,0,0,1,20.231,6H31.863a3.234,3.234,0,0,1,3.231,3.231V35.08A3.234,3.234,0,0,1,31.863,38.311ZM20.231,7.292a1.941,1.941,0,0,0-1.939,1.939V35.08a1.941,1.941,0,0,0,1.939,1.939H31.863A1.941,1.941,0,0,0,33.8,35.08V9.231a1.941,1.941,0,0,0-1.939-1.939Z" transform="translate(-17 -6)" fill="#fff"/>
      </g>
    </g>
    <rect id="Rectangle_94" data-name="Rectangle 94" width="15.51" height="17.143" transform="translate(215.449 1006.918)" fill="#f78f1e"/>
  </g>
</svg>
