<svg id="oil-bottle" xmlns="http://www.w3.org/2000/svg" width="16.258" height="23.123" viewBox="0 0 16.258 23.123">
  <g id="Group_174" data-name="Group 174" transform="translate(0 2.71)">
    <path id="Path_215" data-name="Path 215" d="M92.258,66.435a.677.677,0,0,0-.184-.464l-5.419-5.758A.678.678,0,0,0,86.161,60H79.387a.678.678,0,0,0-.506.227l-2.71,3.048a.678.678,0,0,0-.171.45V75.671a2.024,2.024,0,0,0,.519,1.355,2.031,2.031,0,0,0,1.514,3.387H90.226a2.031,2.031,0,0,0,1.514-3.387,2.024,2.024,0,0,0,.519-1.355Zm-8.129,9.913A2.035,2.035,0,0,1,82.1,74.316a4.15,4.15,0,0,1,.769-1.975c.348-.6.692-1.1.706-1.119a.677.677,0,0,1,1.115,0c.014.021.358.519.706,1.119a4.15,4.15,0,0,1,.769,1.975A2.035,2.035,0,0,1,84.129,76.348Zm4.994-7.992a1.355,1.355,0,0,1-1.915-.058L84.1,64.993a1.355,1.355,0,1,1,1.973-1.858l3.111,3.306A1.355,1.355,0,0,1,89.123,68.356Z" transform="translate(-76 -60)" fill="#fff"/>
    <path id="Path_216" data-name="Path 216" d="M241,346.253a.677.677,0,0,0,1.355,0,5.057,5.057,0,0,0-.677-1.455A5.061,5.061,0,0,0,241,346.253Z" transform="translate(-233.548 -331.936)" fill="#fff"/>
  </g>
  <path id="Path_217" data-name="Path 217" d="M140.742,0h-4.065A.677.677,0,0,0,136,.677v.677h5.419V.677A.677.677,0,0,0,140.742,0Z" transform="translate(-133.29)" fill="#fff"/>
</svg>
